<?xml version="1.0" encoding="utf-8"?>
<!-- Generator: Adobe Illustrator 16.0.0, SVG Export Plug-In . SVG Version: 6.00 Build 0)  -->
<!DOCTYPE svg PUBLIC "-//W3C//DTD SVG 1.1//EN" "http://www.w3.org/Graphics/SVG/1.1/DTD/svg11.dtd">
<svg version="1.1" id="Calque_1" xmlns="http://www.w3.org/2000/svg" xmlns:xlink="http://www.w3.org/1999/xlink" x="0px" y="0px"
	 width="141.73px" height="141.73px" viewBox="0 0 141.73 141.73" enable-background="new 0 0 141.73 141.73" xml:space="preserve">
<g>
	<path d="M53.797,129.865c-5.364,0.22-10.727,0.444-16.091,0.61c-5.364,0.193-10.727,0.33-16.091,0.481l-1.058,0.029l-0.034-1.121
		c-0.148-4.917-0.258-9.833-0.361-14.75l-0.312-14.75l-0.232-14.75c-0.077-4.917-0.165-9.833-0.199-14.75l-0.14-14.75l-0.111-14.75
		l-0.093-29.5l-0.008-2.547l2.547,0.008l32.182,0.099l2.462,0.007l-0.022,2.433l-0.265,29.5l-0.451,29.5
		c-0.228,9.833-0.399,19.667-0.702,29.5c-0.13,4.917-0.277,9.833-0.454,14.75C54.214,120.032,53.996,124.948,53.797,129.865z
		 M53.797,129.865c-0.198-4.917-0.417-9.833-0.568-14.75c-0.177-4.917-0.324-9.833-0.454-14.75
		c-0.303-9.833-0.474-19.667-0.702-29.5l-0.451-29.5l-0.265-29.5l2.44,2.44l-32.182,0.099l2.539-2.539l-0.093,29.5l-0.111,14.75
		l-0.14,14.75c-0.034,4.917-0.122,9.833-0.199,14.75l-0.232,14.75l-0.312,14.75c-0.103,4.917-0.213,9.833-0.361,14.75l-1.091-1.092
		c5.364,0.151,10.727,0.288,16.091,0.481C43.07,129.421,48.434,129.646,53.797,129.865z"/>
</g>
<g>
	<path d="M29.026,116.879c0,0,1.085-0.283,2.712-0.484c0.814-0.108,1.764-0.199,2.781-0.26c1.017-0.071,2.102-0.084,3.188-0.103
		c0.542,0.01,1.085,0.02,1.619,0.029c0.534,0,1.06,0.05,1.568,0.071c1.017,0.06,1.967,0.15,2.781,0.26
		c1.627,0.201,2.712,0.486,2.712,0.486s-1.085,0.285-2.712,0.486c-0.814,0.109-1.764,0.2-2.781,0.26
		c-0.508,0.021-1.034,0.071-1.568,0.071c-0.534,0.01-1.076,0.02-1.619,0.029c-1.085-0.019-2.17-0.031-3.188-0.103
		c-1.017-0.061-1.967-0.151-2.781-0.26C30.111,117.162,29.026,116.879,29.026,116.879z"/>
</g>
<g>
	<path d="M29.026,41.506c0,0,1.085-0.283,2.712-0.484c0.814-0.109,1.764-0.2,2.781-0.26c1.017-0.072,2.102-0.085,3.188-0.103
		c0.542,0.009,1.085,0.019,1.619,0.028c0.534,0,1.06,0.051,1.568,0.072c1.017,0.059,1.967,0.15,2.781,0.259
		c1.627,0.201,2.712,0.486,2.712,0.486s-1.085,0.285-2.712,0.486c-0.814,0.109-1.764,0.2-2.781,0.259
		c-0.508,0.021-1.034,0.072-1.568,0.072c-0.534,0.009-1.076,0.019-1.619,0.028c-1.085-0.018-2.17-0.031-3.188-0.103
		c-1.017-0.06-1.967-0.15-2.781-0.26C30.111,41.79,29.026,41.506,29.026,41.506z"/>
</g>
<g>
	<path d="M44.34,27.109c0,0-0.014,0.155-0.039,0.446c-0.053,0.286,0.003,0.729-0.194,1.245c-0.084,0.26-0.15,0.56-0.273,0.865
		c-0.148,0.296-0.309,0.616-0.48,0.958c-0.205,0.322-0.473,0.634-0.731,0.983c-0.301,0.308-0.647,0.61-1.002,0.937
		c-0.791,0.53-1.741,1.07-2.873,1.218c-0.296,0.036-0.529,0.112-0.895,0.115c-0.275-0.011-0.553-0.021-0.834-0.032
		c-0.273,0.012-0.578-0.055-0.895-0.138c-0.308-0.083-0.647-0.138-0.943-0.261c-1.2-0.457-2.298-1.292-3.125-2.397
		c-0.353-0.588-0.742-1.179-0.904-1.869c-0.108-0.334-0.229-0.666-0.245-1.02l-0.06-0.525l-0.028-0.263l-0.013-0.131l-0.007-0.066
		l-0.003-0.033l-0.001-0.017c0.001-0.043-0.006,0.074,0.002-0.102c0.044-1.124,0.457-2.781,1.256-3.856
		c0.828-1.105,1.924-1.945,3.126-2.4c1.209-0.389,2.456-0.571,3.565-0.315c0.52,0.041,1.067,0.278,1.567,0.464
		c0.502,0.189,0.895,0.521,1.312,0.757c0.356,0.326,0.7,0.63,1.001,0.938c0.258,0.349,0.526,0.662,0.731,0.984
		c0.171,0.342,0.332,0.663,0.48,0.958c0.123,0.305,0.188,0.604,0.272,0.864c0.198,0.515,0.142,0.961,0.195,1.247
		C44.326,26.955,44.34,27.109,44.34,27.109z M44.34,27.109c0,0-0.018-0.155-0.051-0.445c-0.06-0.285-0.015-0.728-0.226-1.236
		c-0.09-0.256-0.163-0.55-0.292-0.848c-0.165-0.281-0.343-0.585-0.534-0.91c-0.224-0.3-0.509-0.584-0.78-0.899
		c-0.307-0.282-0.682-0.522-1.046-0.785c-0.842-0.407-1.671-0.767-2.745-0.778c-1.017-0.109-2.058,0.209-3.008,0.644
		c-0.935,0.515-1.711,1.288-2.311,2.177c-0.533,1.002-0.812,1.795-0.869,3.165c0.009-0.166,0.003-0.039,0.005-0.073l0.001,0.013
		l0.002,0.025l0.005,0.05l0.01,0.101l0.019,0.202l0.034,0.404c-0.004,0.275,0.092,0.529,0.168,0.788
		c0.11,0.535,0.397,0.994,0.62,1.487c0.601,0.89,1.375,1.667,2.312,2.18c0.227,0.131,0.465,0.19,0.698,0.294
		c0.227,0.101,0.465,0.2,0.76,0.225c0.277,0.046,0.552,0.091,0.824,0.136c0.181,0.023,0.488-0.01,0.724-0.011
		c1.021,0,1.939-0.378,2.75-0.781c0.365-0.262,0.738-0.505,1.045-0.786c0.271-0.316,0.556-0.6,0.781-0.9
		c0.19-0.325,0.368-0.629,0.533-0.91c0.129-0.298,0.201-0.591,0.291-0.847c0.211-0.507,0.167-0.954,0.226-1.237
		C44.322,27.264,44.34,27.109,44.34,27.109z"/>
</g>
<g>
	<path d="M85.979,129.865c-5.363,0.22-10.728,0.444-16.091,0.61c-5.364,0.193-10.728,0.33-16.091,0.481l-1.058,0.029l-0.034-1.121
		c-0.148-4.917-0.258-9.833-0.361-14.75l-0.312-14.75l-0.232-14.75c-0.077-4.917-0.165-9.833-0.199-14.75l-0.14-14.75l-0.111-14.75
		l-0.093-29.5L51.25,9.318l2.547,0.008l32.182,0.099l2.462,0.007l-0.021,2.433l-0.266,29.5l-0.45,29.5
		c-0.229,9.833-0.399,19.667-0.702,29.5c-0.131,4.917-0.277,9.833-0.454,14.75C86.396,120.032,86.178,124.948,85.979,129.865z
		 M85.979,129.865c-0.198-4.917-0.416-9.833-0.568-14.75c-0.177-4.917-0.323-9.833-0.454-14.75
		c-0.303-9.833-0.474-19.667-0.702-29.5l-0.45-29.5l-0.266-29.5l2.44,2.44l-32.182,0.099l2.539-2.539l-0.093,29.5l-0.111,14.75
		l-0.14,14.75c-0.034,4.917-0.122,9.833-0.199,14.75l-0.232,14.75l-0.312,14.75c-0.103,4.917-0.213,9.833-0.361,14.75l-1.091-1.092
		c5.364,0.151,10.728,0.288,16.091,0.481C75.252,129.421,80.616,129.646,85.979,129.865z"/>
</g>
<g>
	<path d="M61.208,116.879c0,0,1.085-0.283,2.713-0.484c0.813-0.108,1.763-0.199,2.78-0.26c1.018-0.071,2.103-0.084,3.188-0.103
		c0.542,0.01,1.085,0.02,1.619,0.029c0.534,0,1.06,0.05,1.568,0.071c1.018,0.06,1.967,0.15,2.78,0.26
		c1.628,0.201,2.713,0.486,2.713,0.486s-1.085,0.285-2.713,0.486c-0.813,0.109-1.763,0.2-2.78,0.26
		c-0.509,0.021-1.034,0.071-1.568,0.071c-0.534,0.01-1.077,0.02-1.619,0.029c-1.085-0.019-2.17-0.031-3.188-0.103
		c-1.017-0.061-1.967-0.151-2.78-0.26C62.293,117.162,61.208,116.879,61.208,116.879z"/>
</g>
<g>
	<path d="M61.208,41.506c0,0,1.085-0.283,2.713-0.484c0.813-0.109,1.763-0.2,2.78-0.26c1.018-0.072,2.103-0.085,3.188-0.103
		c0.542,0.009,1.085,0.019,1.619,0.028c0.534,0,1.06,0.051,1.568,0.072c1.018,0.059,1.967,0.15,2.78,0.259
		c1.628,0.201,2.713,0.486,2.713,0.486s-1.085,0.285-2.713,0.486c-0.813,0.109-1.763,0.2-2.78,0.259
		c-0.509,0.021-1.034,0.072-1.568,0.072c-0.534,0.009-1.077,0.019-1.619,0.028c-1.085-0.018-2.17-0.031-3.188-0.103
		c-1.017-0.06-1.967-0.15-2.78-0.26C62.293,41.79,61.208,41.506,61.208,41.506z"/>
</g>
<g>
	<path d="M76.522,27.109c0,0-0.014,0.155-0.039,0.446c-0.053,0.286,0.004,0.729-0.194,1.245c-0.084,0.26-0.149,0.56-0.273,0.865
		c-0.148,0.296-0.309,0.616-0.48,0.958c-0.204,0.322-0.473,0.634-0.731,0.983c-0.301,0.308-0.646,0.61-1.002,0.937
		c-0.791,0.53-1.741,1.07-2.873,1.219c-0.296,0.036-0.529,0.112-0.895,0.115c-0.275-0.011-0.553-0.021-0.834-0.032
		c-0.273,0.012-0.578-0.054-0.895-0.138c-0.308-0.083-0.647-0.138-0.943-0.261c-1.2-0.457-2.298-1.292-3.125-2.397
		c-0.353-0.588-0.741-1.179-0.904-1.869c-0.108-0.334-0.229-0.666-0.245-1.02l-0.06-0.525L63,27.372l-0.013-0.131l-0.007-0.066
		l-0.003-0.033l-0.001-0.017c0.001-0.043-0.006,0.074,0.002-0.102c0.044-1.124,0.456-2.781,1.256-3.857
		c0.828-1.105,1.924-1.945,3.126-2.399c1.209-0.389,2.456-0.571,3.565-0.315c0.52,0.041,1.067,0.278,1.567,0.464
		c0.502,0.189,0.895,0.521,1.312,0.757c0.355,0.326,0.7,0.63,1.002,0.938c0.258,0.349,0.526,0.662,0.73,0.984
		c0.172,0.342,0.332,0.663,0.48,0.958c0.123,0.305,0.188,0.604,0.272,0.863c0.197,0.516,0.142,0.962,0.194,1.247
		C76.509,26.955,76.522,27.109,76.522,27.109z M76.522,27.109c0,0-0.018-0.155-0.051-0.445c-0.06-0.285-0.015-0.728-0.226-1.236
		c-0.091-0.256-0.162-0.55-0.292-0.848c-0.165-0.281-0.343-0.585-0.534-0.91c-0.224-0.3-0.509-0.584-0.78-0.899
		c-0.307-0.282-0.682-0.522-1.046-0.785c-0.842-0.407-1.671-0.767-2.745-0.778c-1.017-0.109-2.058,0.209-3.008,0.644
		c-0.935,0.515-1.711,1.288-2.311,2.177c-0.533,1.002-0.812,1.795-0.869,3.165c0.009-0.166,0.003-0.039,0.005-0.073l0.001,0.013
		l0.002,0.025l0.005,0.05l0.01,0.101l0.019,0.202l0.034,0.404c-0.004,0.275,0.092,0.53,0.168,0.788
		c0.11,0.535,0.397,0.994,0.62,1.487c0.601,0.889,1.375,1.666,2.312,2.18c0.227,0.131,0.465,0.19,0.697,0.294
		c0.228,0.101,0.466,0.2,0.761,0.225c0.277,0.046,0.552,0.091,0.824,0.136c0.181,0.023,0.488-0.01,0.724-0.011
		c1.021,0,1.939-0.378,2.75-0.781c0.365-0.262,0.738-0.505,1.046-0.786c0.271-0.316,0.556-0.6,0.78-0.9
		c0.19-0.325,0.369-0.629,0.533-0.91c0.13-0.297,0.201-0.591,0.291-0.847c0.211-0.507,0.167-0.954,0.227-1.237
		C76.505,27.264,76.522,27.109,76.522,27.109z"/>
</g>
<g>
	<path d="M118.161,129.865c-5.363,0.22-10.727,0.444-16.09,0.61c-5.364,0.193-10.728,0.33-16.091,0.481l-1.058,0.029l-0.034-1.121
		c-0.147-4.917-0.258-9.833-0.36-14.75l-0.312-14.75l-0.232-14.75c-0.076-4.917-0.165-9.833-0.198-14.75l-0.141-14.75l-0.111-14.75
		l-0.093-29.5l-0.008-2.547l2.547,0.008l32.181,0.099l2.462,0.007l-0.021,2.433l-0.266,29.5l-0.45,29.5
		c-0.229,9.833-0.399,19.667-0.702,29.5c-0.131,4.917-0.277,9.833-0.454,14.75C118.577,120.032,118.359,124.948,118.161,129.865z
		 M118.161,129.865c-0.198-4.917-0.416-9.833-0.568-14.75c-0.177-4.917-0.323-9.833-0.454-14.75
		c-0.303-9.833-0.474-19.667-0.702-29.5l-0.45-29.5l-0.266-29.5l2.44,2.44L85.98,14.404l2.539-2.539l-0.093,29.5l-0.111,14.75
		l-0.141,14.75c-0.033,4.917-0.122,9.833-0.198,14.75l-0.232,14.75l-0.312,14.75c-0.103,4.917-0.213,9.833-0.36,14.75l-1.092-1.092
		c5.363,0.151,10.727,0.288,16.091,0.481C107.435,129.421,112.798,129.646,118.161,129.865z"/>
</g>
<g>
	<path d="M93.39,116.879c0,0,1.085-0.283,2.713-0.484c0.813-0.108,1.764-0.199,2.78-0.26c1.018-0.071,2.103-0.084,3.188-0.103
		c0.542,0.01,1.085,0.02,1.619,0.029c0.534,0,1.06,0.05,1.568,0.071c1.017,0.06,1.967,0.15,2.78,0.26
		c1.628,0.201,2.713,0.486,2.713,0.486s-1.085,0.285-2.713,0.486c-0.813,0.109-1.764,0.2-2.78,0.26
		c-0.509,0.021-1.034,0.071-1.568,0.071c-0.534,0.01-1.077,0.02-1.619,0.029c-1.086-0.019-2.171-0.031-3.188-0.103
		c-1.017-0.061-1.967-0.151-2.78-0.26C94.475,117.162,93.39,116.879,93.39,116.879z"/>
</g>
<g>
	<path d="M93.39,41.506c0,0,1.085-0.283,2.713-0.484c0.813-0.109,1.764-0.2,2.78-0.26c1.018-0.072,2.103-0.085,3.188-0.103
		c0.542,0.009,1.085,0.019,1.619,0.028c0.534,0,1.06,0.051,1.568,0.072c1.017,0.059,1.967,0.15,2.78,0.259
		c1.628,0.201,2.713,0.486,2.713,0.486s-1.085,0.285-2.713,0.486c-0.813,0.109-1.764,0.2-2.78,0.259
		c-0.509,0.021-1.034,0.072-1.568,0.072c-0.534,0.009-1.077,0.019-1.619,0.028c-1.086-0.018-2.171-0.031-3.188-0.103
		c-1.017-0.06-1.967-0.15-2.78-0.26C94.475,41.79,93.39,41.506,93.39,41.506z"/>
</g>
<g>
	<path d="M108.703,27.109c0,0-0.014,0.155-0.039,0.446c-0.053,0.286,0.004,0.729-0.194,1.245c-0.084,0.26-0.149,0.56-0.272,0.865
		c-0.148,0.296-0.31,0.616-0.48,0.958c-0.205,0.322-0.473,0.634-0.731,0.983c-0.301,0.308-0.646,0.61-1.002,0.937
		c-0.791,0.53-1.741,1.07-2.873,1.218c-0.296,0.036-0.529,0.111-0.895,0.115c-0.274-0.011-0.553-0.021-0.834-0.032
		c-0.273,0.012-0.578-0.055-0.896-0.139c-0.308-0.083-0.646-0.138-0.943-0.261c-1.199-0.457-2.298-1.292-3.125-2.397
		c-0.353-0.588-0.741-1.179-0.904-1.869c-0.107-0.334-0.229-0.666-0.245-1.02l-0.06-0.525l-0.028-0.263l-0.014-0.131l-0.007-0.066
		l-0.003-0.033l-0.002-0.017c0.002-0.043-0.005,0.074,0.003-0.102c0.044-1.124,0.457-2.781,1.257-3.856
		c0.828-1.105,1.924-1.945,3.126-2.399c1.209-0.39,2.457-0.572,3.565-0.316c0.521,0.041,1.067,0.278,1.567,0.464
		c0.502,0.189,0.895,0.521,1.312,0.757c0.355,0.326,0.7,0.63,1.001,0.938c0.259,0.349,0.526,0.662,0.731,0.984
		c0.171,0.342,0.331,0.663,0.479,0.958c0.123,0.305,0.188,0.604,0.272,0.864c0.198,0.515,0.142,0.961,0.194,1.247
		C108.689,26.955,108.703,27.109,108.703,27.109z M108.703,27.109c0,0-0.018-0.155-0.051-0.445c-0.06-0.284-0.015-0.728-0.226-1.236
		c-0.09-0.256-0.162-0.55-0.291-0.848c-0.165-0.281-0.344-0.585-0.534-0.91c-0.225-0.3-0.51-0.584-0.78-0.9
		c-0.307-0.281-0.682-0.522-1.046-0.785c-0.842-0.408-1.671-0.767-2.745-0.778c-1.018-0.109-2.058,0.209-3.008,0.645
		c-0.935,0.515-1.711,1.288-2.312,2.177c-0.533,1.002-0.812,1.794-0.869,3.165c0.009-0.166,0.003-0.039,0.006-0.073l0.001,0.013
		l0.003,0.025l0.005,0.05l0.01,0.101l0.019,0.202l0.034,0.404c-0.004,0.275,0.092,0.53,0.169,0.788
		c0.109,0.535,0.396,0.994,0.62,1.487c0.602,0.889,1.375,1.667,2.312,2.18c0.227,0.131,0.465,0.189,0.697,0.294
		c0.228,0.102,0.466,0.2,0.761,0.226c0.277,0.046,0.552,0.091,0.823,0.136c0.182,0.022,0.488-0.01,0.724-0.011
		c1.021,0,1.939-0.378,2.751-0.781c0.365-0.262,0.738-0.505,1.046-0.786c0.271-0.316,0.556-0.6,0.78-0.9
		c0.189-0.325,0.368-0.629,0.533-0.91c0.129-0.297,0.2-0.591,0.291-0.847c0.21-0.507,0.166-0.954,0.226-1.237
		C108.686,27.264,108.703,27.109,108.703,27.109z"/>
</g>
</svg>
