<?xml version="1.0" encoding="utf-8"?>
<!-- Generator: Adobe Illustrator 16.0.0, SVG Export Plug-In . SVG Version: 6.00 Build 0)  -->
<!DOCTYPE svg PUBLIC "-//W3C//DTD SVG 1.1//EN" "http://www.w3.org/Graphics/SVG/1.1/DTD/svg11.dtd">
<svg version="1.1" id="Calque_1" xmlns="http://www.w3.org/2000/svg" xmlns:xlink="http://www.w3.org/1999/xlink" x="0px" y="0px"
	 width="141.73px" height="141.73px" viewBox="0 0 141.73 141.73" enable-background="new 0 0 141.73 141.73" xml:space="preserve">
<g>
	<path d="M77.967,32.923c0.384,3.307,0.685,6.614,0.928,9.92c0.135,1.654,0.253,3.307,0.347,4.96l0.301,4.96
		c0.143,3.307,0.329,6.614,0.437,9.92c0.119,3.307,0.207,6.614,0.269,9.92c0.068,3.307,0.101,6.614,0.12,9.921
		c0.018,3.307-0.044,6.613-0.146,9.921c-0.108,3.307-0.29,6.613-0.481,9.92l-0.607,9.921l-0.219,3.571l-2.283-2.535
		c-1.76-1.952-3.508-3.915-5.299-5.835c-1.793-1.918-3.603-3.82-5.446-5.688c-1.832-1.879-3.723-3.699-5.59-5.544
		c-1.869-1.842-3.796-3.626-5.696-5.438l0.828,0.331c-2.757,0.188-5.514,0.356-8.27,0.582l-8.268,0.648
		c-2.756,0.212-5.511,0.454-8.268,0.627c-2.756,0.2-5.514,0.357-8.271,0.501l-2.635,0.137l-0.066-2.769l-0.218-9.136l-0.19-9.136
		L19.09,63.47c-0.028-3.045-0.042-6.09-0.025-9.136l0.017-3.142l3.117-0.075c2.74-0.065,5.482-0.091,8.224-0.127
		c2.742-0.007,5.483-0.048,8.226-0.027l8.228,0.036c2.743,0.018,5.487,0.08,8.23,0.118l-1.532,0.618
		c1.938-1.644,3.913-3.248,5.878-4.862c1.959-1.621,3.941-3.217,5.93-4.804c1.977-1.601,3.988-3.165,5.992-4.737
		c2.012-1.563,4.039-3.109,6.09-4.63l0.438-0.325L77.967,32.923z M77.287,33.783c-1.513,1.685-3.036,3.357-4.577,5.01
		c-1.747,1.854-3.485,3.716-5.258,5.541c-1.76,1.838-3.528,3.668-5.319,5.473c-1.785,1.812-3.56,3.634-5.371,5.416l-0.562,0.554
		l-0.969,0.064c-2.738,0.18-5.475,0.385-8.213,0.546l-8.215,0.464c-2.738,0.164-5.478,0.266-8.216,0.401
		c-2.74,0.106-5.479,0.224-8.219,0.301l3.134-3.217c0.017,3.045,0.003,6.09-0.025,9.136l-0.152,9.135l-0.19,9.136l-0.218,9.136
		l-2.7-2.632c2.761,0.001,5.523,0.016,8.286,0.073c2.763,0.03,5.526,0.129,8.29,0.198l8.29,0.221
		c2.764,0.083,5.526,0.108,8.289,0.153l0.521,0.009l0.307,0.322c1.812,1.899,3.596,3.827,5.438,5.696
		c1.844,1.867,3.665,3.758,5.544,5.59c1.868,1.843,3.77,3.652,5.688,5.445c1.92,1.791,3.883,3.539,5.835,5.299l-2.502,1.036
		l-0.607-9.921c-0.191-3.307-0.373-6.613-0.481-9.92c-0.102-3.308-0.163-6.614-0.146-9.921c0.02-3.307,0.052-6.614,0.12-9.921
		c0.062-3.307,0.149-6.613,0.269-9.92c0.107-3.307,0.294-6.614,0.437-9.92l0.301-4.96c0.094-1.653,0.212-3.307,0.347-4.96
		C76.662,39.824,76.949,36.803,77.287,33.783z"/>
</g>
<g>
	<path fill="#010202" d="M93.786,51.257c0,0,0.381,0.526,0.991,1.473c0.303,0.475,0.679,1.048,1.075,1.72
		c0.384,0.683,0.773,1.494,1.19,2.384c0.203,0.447,0.445,0.907,0.642,1.397c0.181,0.496,0.368,1.009,0.561,1.536
		c0.185,0.534,0.374,1.08,0.565,1.64c0.146,0.575,0.292,1.162,0.442,1.759c0.331,1.191,0.508,2.459,0.679,3.749
		c0.104,0.643,0.146,1.299,0.17,1.958c0.023,0.659,0.076,1.32,0.072,1.983c-0.058,1.323-0.07,2.651-0.279,3.938
		c-0.126,1.301-0.437,2.547-0.697,3.752c-0.332,1.189-0.656,2.336-1.063,3.385c-0.367,1.062-0.828,2.02-1.226,2.904
		c-0.828,1.762-1.64,3.15-2.209,4.119c-0.566,0.969-0.914,1.52-0.914,1.52s0.026-0.16,0.078-0.459
		c0.062-0.295,0.125-0.742,0.259-1.289c0.127-0.547,0.275-1.217,0.472-1.971c0.187-0.75,0.398-1.596,0.63-2.516
		c0.202-0.926,0.457-1.91,0.656-2.961c0.241-1.041,0.403-2.152,0.611-3.285c0.135-1.146,0.328-2.316,0.397-3.52
		c0.13-1.195,0.13-2.416,0.171-3.634c0.013-0.608-0.03-1.217-0.042-1.826c-0.02-0.607-0.012-1.213-0.09-1.812
		c-0.059-0.599-0.106-1.194-0.15-1.785c-0.029-0.592-0.167-1.165-0.23-1.738c-0.079-0.574-0.155-1.137-0.23-1.688
		c-0.11-0.548-0.218-1.084-0.323-1.606c-0.099-0.526-0.194-1.039-0.288-1.534c-0.092-0.496-0.229-0.958-0.337-1.413
		c-0.219-0.917-0.421-1.76-0.599-2.505c-0.233-0.745-0.406-1.408-0.555-1.95C93.92,51.894,93.786,51.257,93.786,51.257z"/>
</g>
<g>
	<path fill="#010202" d="M101.219,40.868c0,0,0.143,0.203,0.408,0.584c0.254,0.386,0.652,0.941,1.108,1.67
		c0.464,0.727,1.039,1.603,1.646,2.629c0.586,1.046,1.182,2.287,1.835,3.643c0.314,0.681,0.673,1.39,0.971,2.142
		c0.276,0.759,0.563,1.543,0.856,2.351c0.292,0.81,0.578,1.647,0.864,2.507c0.236,0.875,0.447,1.776,0.675,2.692
		c0.507,1.822,0.776,3.762,1.038,5.735c0.16,0.983,0.223,1.986,0.261,2.995c0.035,1.007,0.116,2.02,0.111,3.032
		c-0.088,2.025-0.108,4.057-0.428,6.027c-0.124,0.992-0.231,1.973-0.46,2.922c-0.201,0.957-0.382,1.9-0.604,2.816
		c-0.509,1.82-1.005,3.574-1.63,5.176c-0.565,1.625-1.255,3.094-1.86,4.451c-0.648,1.342-1.271,2.551-1.856,3.598
		c-0.562,1.062-1.103,1.955-1.537,2.699c-0.865,1.48-1.398,2.324-1.398,2.324s0.042-0.244,0.119-0.701
		c0.095-0.453,0.191-1.137,0.396-1.969c0.194-0.84,0.421-1.867,0.721-3.016c0.282-1.15,0.602-2.445,0.951-3.859
		c0.162-0.701,0.332-1.432,0.509-2.189c0.188-0.752,0.355-1.531,0.508-2.334c0.369-1.594,0.616-3.291,0.934-5.025
		c0.207-1.752,0.504-3.543,0.609-5.381c0.196-1.83,0.199-3.697,0.261-5.561c0.019-0.932-0.048-1.865-0.064-2.793l-0.031-1.392
		c0.004-0.463-0.074-0.921-0.106-1.381c-0.09-0.916-0.163-1.827-0.23-2.73c-0.021-0.454-0.085-0.898-0.161-1.339
		c-0.064-0.443-0.128-0.883-0.191-1.32c-0.12-0.875-0.252-1.734-0.354-2.583c-0.169-0.837-0.334-1.657-0.493-2.456
		c-0.152-0.806-0.302-1.588-0.444-2.346c-0.144-0.759-0.365-1.459-0.522-2.159c-0.355-1.383-0.604-2.685-0.905-3.838
		c-0.356-1.139-0.619-2.153-0.849-2.983c-0.235-0.827-0.38-1.495-0.496-1.942C101.273,41.109,101.219,40.868,101.219,40.868z"/>
</g>
<g>
	<path fill="#010202" d="M112.271,29.441c0,0,0.196,0.281,0.563,0.807c0.352,0.533,0.902,1.299,1.533,2.306
		c0.638,1.003,1.43,2.213,2.283,3.627c0.812,1.442,1.613,3.165,2.521,5.034c0.437,0.941,0.93,1.919,1.343,2.957
		c0.382,1.048,0.775,2.131,1.181,3.246c0.405,1.118,0.8,2.275,1.195,3.462c0.324,1.208,0.617,2.452,0.933,3.717
		c0.153,0.633,0.309,1.273,0.465,1.917l0.225,0.972c0.064,0.327,0.104,0.66,0.158,0.992c0.205,1.328,0.407,2.676,0.586,4.04
		c0.221,1.358,0.307,2.743,0.358,4.136c0.049,1.392,0.161,2.789,0.154,4.188c-0.122,2.797-0.149,5.602-0.592,8.327
		c-0.171,1.365-0.319,2.723-0.634,4.033c-0.277,1.318-0.529,2.623-0.837,3.891c-0.702,2.512-1.387,4.932-2.249,7.146
		c-0.782,2.244-1.733,4.27-2.57,6.145c-0.902,1.848-1.739,3.527-2.551,4.975c-0.791,1.459-1.533,2.695-2.133,3.721
		c-1.195,2.047-1.932,3.211-1.932,3.211s0.057-0.338,0.164-0.969c0.13-0.623,0.265-1.57,0.548-2.723
		c0.268-1.156,0.585-2.576,0.981-4.168c0.396-1.584,0.84-3.371,1.326-5.322c0.225-0.971,0.46-1.979,0.702-3.023
		c0.113-0.523,0.261-1.047,0.373-1.586c0.109-0.537,0.218-1.084,0.329-1.639c0.508-2.199,0.852-4.545,1.289-6.939
		c0.285-2.42,0.696-4.893,0.841-7.432c0.272-2.527,0.275-5.105,0.361-7.678c0.025-1.287-0.065-2.575-0.089-3.858
		c-0.023-0.641-0.037-1.282-0.044-1.922c0.006-0.64-0.102-1.273-0.146-1.906c-0.125-1.266-0.227-2.524-0.317-3.771
		c-0.027-0.311-0.041-0.624-0.08-0.932l-0.145-0.918c-0.088-0.611-0.178-1.219-0.264-1.821c-0.168-1.208-0.348-2.395-0.487-3.568
		c-0.233-1.156-0.462-2.289-0.683-3.391c-0.211-1.112-0.414-2.194-0.611-3.241c-0.199-1.047-0.506-2.015-0.724-2.98
		c-0.483-1.914-0.848-3.703-1.261-5.295c-0.477-1.58-0.846-2.979-1.16-4.125c-0.325-1.142-0.524-2.063-0.686-2.681
		C112.347,29.774,112.271,29.441,112.271,29.441z"/>
</g>
</svg>
