<?xml version="1.0" encoding="utf-8"?>
<!-- Generator: Adobe Illustrator 16.0.0, SVG Export Plug-In . SVG Version: 6.00 Build 0)  -->
<!DOCTYPE svg PUBLIC "-//W3C//DTD SVG 1.1//EN" "http://www.w3.org/Graphics/SVG/1.1/DTD/svg11.dtd">
<svg version="1.1" id="Calque_1" xmlns="http://www.w3.org/2000/svg" xmlns:xlink="http://www.w3.org/1999/xlink" x="0px" y="0px"
	 width="141.73px" height="141.73px" viewBox="0 0 141.73 141.73" enable-background="new 0 0 141.73 141.73" xml:space="preserve">
<g>
	<path d="M82.571,1c-4.821,6.742-9.965,13.163-15.18,19.512l-3.946,4.726l-3.993,4.681c-1.327,1.563-2.681,3.101-4.032,4.64
		c-1.355,1.536-2.691,3.091-4.066,4.606c-2.732,3.051-5.467,6.097-8.25,9.097c-1.389,1.502-2.759,3.023-4.169,4.504l-4.206,4.467
		c-2.798,2.984-5.666,5.898-8.495,8.851l-8.611,8.734v-8.869l8.652,8.754l4.272,4.431c1.419,1.482,2.86,2.942,4.258,4.445
		c2.807,2.995,5.646,5.959,8.408,8.999c2.791,3.012,5.544,6.06,8.28,9.126c1.379,1.522,2.727,3.075,4.083,4.62
		c1.353,1.548,2.718,3.085,4.048,4.655c2.688,3.115,5.337,6.268,7.967,9.439c5.23,6.373,10.391,12.817,15.223,19.59
		c-6.772-4.832-13.217-9.992-19.59-15.223c-3.172-2.63-6.324-5.279-9.439-7.967c-1.57-1.331-3.107-2.694-4.655-4.048
		c-1.545-1.355-3.098-2.704-4.62-4.083c-3.066-2.735-6.115-5.489-9.126-8.28c-3.04-2.762-6.003-5.601-8.999-8.407
		c-1.503-1.397-2.963-2.839-4.445-4.258l-4.431-4.272l-8.753-8.652l-4.493-4.44l4.493-4.429l8.734-8.611
		c2.953-2.829,5.867-5.697,8.851-8.495l4.467-4.206c1.481-1.41,3.002-2.78,4.504-4.169c3-2.783,6.046-5.518,9.097-8.25
		c1.516-1.375,3.07-2.711,4.606-4.067c1.539-1.352,3.077-2.705,4.641-4.032l4.681-3.993l4.726-3.947
		C69.408,10.965,75.829,5.822,82.571,1z"/>
</g>
<g>
	<path d="M131.071,1c-4.821,6.742-9.965,13.163-15.18,19.512l-3.946,4.726l-3.993,4.681c-1.327,1.563-2.681,3.101-4.032,4.64
		c-1.355,1.536-2.691,3.091-4.066,4.606c-2.732,3.051-5.467,6.097-8.25,9.097c-1.389,1.502-2.759,3.023-4.169,4.504l-4.206,4.467
		c-2.798,2.984-5.665,5.898-8.494,8.851l-8.611,8.734v-8.869l8.652,8.754l4.271,4.431c1.419,1.482,2.86,2.942,4.258,4.445
		c2.807,2.995,5.646,5.959,8.408,8.999c2.79,3.012,5.543,6.06,8.279,9.126c1.379,1.522,2.727,3.075,4.083,4.62
		c1.353,1.548,2.718,3.085,4.048,4.655c2.688,3.115,5.337,6.268,7.967,9.439c5.23,6.373,10.391,12.817,15.223,19.59
		c-6.772-4.832-13.217-9.992-19.59-15.223c-3.172-2.63-6.324-5.279-9.439-7.967c-1.57-1.331-3.107-2.694-4.655-4.048
		c-1.545-1.355-3.099-2.704-4.62-4.083c-3.066-2.735-6.115-5.489-9.126-8.28c-3.04-2.762-6.003-5.601-8.999-8.407
		c-1.503-1.397-2.963-2.839-4.445-4.258l-4.431-4.272l-8.754-8.652l-4.493-4.44l4.493-4.429l8.734-8.611
		c2.953-2.829,5.867-5.697,8.851-8.495l4.467-4.206c1.481-1.41,3.002-2.78,4.504-4.169c3-2.783,6.047-5.518,9.098-8.25
		c1.516-1.375,3.07-2.711,4.605-4.067c1.539-1.352,3.077-2.705,4.641-4.032l4.681-3.993l4.726-3.947
		C117.908,10.965,124.329,5.822,131.071,1z"/>
</g>
</svg>
