<?xml version="1.0" encoding="utf-8"?>
<!-- Generator: Adobe Illustrator 19.0.0, SVG Export Plug-In . SVG Version: 6.00 Build 0)  -->
<svg version="1.1" id="Calque_1" xmlns="http://www.w3.org/2000/svg" xmlns:xlink="http://www.w3.org/1999/xlink" x="0px" y="0px"
	 viewBox="-233 221.9 100 125" style="enable-background:new -233 221.9 100 125;" xml:space="preserve">
<path d="M-221.6,285.5l7.5,13c0.2,0.4,0.6,0.6,1.1,0.6h14.3l7.1,12.4c0.2,0.4,0.6,0.6,1.1,0.6h15c0.4,0,0.9-0.2,1.1-0.6l7.1-12.4
	h14.3c0.4,0,0.9-0.2,1.1-0.6l7.5-13c0.2-0.4,0.2-0.9,0-1.2l-7.2-12.4l7.1-12.4c0.2-0.4,0.2-0.9,0-1.2l-7.5-13
	c-0.2-0.4-0.6-0.6-1.1-0.6h-14.2l-7.1-12.4c-0.2-0.4-0.6-0.6-1.1-0.6h-15c-0.4,0-0.9,0.2-1.1,0.6l-7.1,12.4H-213
	c-0.4,0-0.9,0.2-1.1,0.6l-7.5,13c-0.2,0.4-0.2,0.9,0,1.2l7.2,12.4l-7.1,12.4C-221.8,284.7-221.8,285.1-221.6,285.5z M-175.2,262.4
	c-1,0.5-4.1,1.3-6.9,1.8c-0.3-0.4-0.6-0.8-0.9-1.2c-0.7-0.7-1.4-1.1-2.3-1.5c2.7-4.1,7.9-9.4,8.5-10c3-3,4-3.1,5.3-1.8
	c1.9,1.9,1.9,5.1,0,7c-0.3,0.3-0.8,0.7-1.4,1.2c-0.3,0.3-0.5,0.7-0.5,1.1C-173.2,260.6-174,261.8-175.2,262.4z M-171.8,283.1
	c-0.3,0.3-1.5,0.4-4.2-0.6c0.2-0.9,0.7-1.7,1.3-2.3c0.6-0.6,1.4-1.1,2.3-1.3C-171.6,280.9-171.3,282.6-171.8,283.1z M-176.5,278.4
	c-0.9,0.9-1.5,1.9-1.8,3c-1-0.5-1.9-1-2.8-1.5c-0.4-1.7,0-3.5,1.3-4.8c1.3-1.3,3.1-1.7,4.8-1.3c0.5,0.9,1.1,1.8,1.5,2.8
	C-174.6,277-175.6,277.6-176.5,278.4z M-177.7,270.1c0.3,0.3,0.6,0.7,0.9,1.1c-1.8,0.1-3.5,0.9-4.8,2.2c-1.3,1.3-2,3-2.2,4.7
	c-0.4-0.3-0.8-0.7-1.1-0.9c-1.9-1.9-1.9-5.1,0-7.1c0.9-0.9,2.2-1.5,3.5-1.5C-179.9,268.7-178.6,269.2-177.7,270.1z M-193.3,269.6
	c0.3,0.8,0.8,1.6,1.5,2.3c0.4,0.4,0.8,0.7,1.2,0.9c-0.5,2.8-1.3,5.9-1.8,6.9c-0.6,1.2-1.9,2-3.2,1.8c-0.4-0.1-0.9,0.1-1.1,0.5
	c-0.5,0.6-0.9,1.2-1.2,1.5c-1.9,1.9-5.1,1.9-7,0c-1.3-1.3-1.2-2.3,1.8-5.3C-202.7,277.5-197.4,272.3-193.3,269.6z M-190.1,261.9
	c-0.6,0.3-1.2,0.7-1.7,1.2s-0.9,1.1-1.2,1.7c-0.6-0.8-0.5-2,0.2-2.7C-192.1,261.3-190.9,261.3-190.1,261.9z M-183.8,266.6
	c-1,0.4-2,1-2.8,1.7c-0.8,0.8-1.4,1.8-1.7,2.8c-0.7-0.2-1.3-0.5-1.8-1c-1.5-1.5-1.5-3.8,0-5.3c1.4-1.4,3.9-1.4,5.3,0
	C-184.3,265.3-183.9,266-183.8,266.6z M-212.3,247.2h13.6l3.7,6.4c0.2,0.4,0.7,0.6,1.1,0.6c0.2,0,0.4-0.1,0.6-0.2
	c0.6-0.3,0.8-1.1,0.5-1.7l-3.8-6.4l6.8-11.7h13.6l6.8,11.7l-0.9,1.6c-3.3-2.6-6.5,0.6-8.2,2.3c-1.1,1.1-6.5,6.6-9.2,11
	c-0.1-0.2-0.3-0.3-0.4-0.5c-0.6-0.6-1.4-1-2.2-1.2v-2.8c0-0.7-0.6-1.2-1.2-1.2c-0.6,0-1.2,0.6-1.2,1.2v2.9c-0.7,0.2-1.3,0.6-1.8,1.1
	s-0.9,1.1-1.1,1.8h-2.9c-0.7,0-1.2,0.6-1.2,1.2c0,0.6,0.6,1.2,1.2,1.2h2.8c0.2,0.8,0.6,1.6,1.2,2.2c0.1,0.1,0.3,0.3,0.5,0.4
	c-1.5,0.9-3.2,2.2-4.8,3.5h-0.1h-13.4l-6.8-11.7L-212.3,247.2z M-212.3,273.1h10.6c-1.6,1.5-2.9,2.7-3.4,3.2
	c-1.8,1.8-5.3,5.3-1.8,8.8c1.5,1.5,3.4,2.2,5.3,2.2c1.9,0,3.8-0.7,5.3-2.2c0.3-0.3,0.6-0.7,1-1.2c2.2,0,4.1-1.2,5.1-3.3
	c0.5-1,1.1-3.2,1.6-5.5c0.2,0.8,0.4,1.5,0.8,2.2c-0.7,1.3-2.2,5.2,2.8,8.9c0.2,0.2,0.5,0.3,0.8,0.3c0.4,0,0.8-0.2,1-0.5
	c0.4-0.5,0.3-1.3-0.2-1.8c-2.6-1.9-2.7-3.7-2.5-4.8c1.6,1.4,4.5,3.2,7.1,4.4c2.5,1.2,4.6,1.8,6.1,1.8c1.1,0,2-0.3,2.6-0.9
	c3.2-3.2-2.9-12.9-5.3-15.9c1.1-0.3,2.9-0.1,4.8,2.5c0.2,0.3,0.6,0.5,1,0.5c0.3,0,0.5-0.1,0.8-0.3c0.5-0.4,0.7-1.2,0.2-1.8
	c-3.8-5-7.7-3.5-8.9-2.8c-0.7-0.4-1.5-0.7-2.3-0.9c2.3-0.5,4.6-1.2,5.6-1.6c2-0.9,3.2-2.9,3.2-5c0.5-0.4,0.9-0.7,1.2-1
	c2.5-2.5,2.8-6.3,1.1-9.1l1.3-2.3h13.6l6.9,11.9l-6.8,11.7H-165c-0.7,0-1.2,0.6-1.2,1.2c0,0.6,0.6,1.2,1.2,1.2h11.3l6.8,11.9
	l-6.8,11.7h-13.6l-5-8.6c-0.3-0.6-1.1-0.8-1.7-0.5c-0.6,0.3-0.8,1.1-0.5,1.7l5,8.6l-6.8,11.7h-13.5l-6.8-11.6l7.1-12.4
	c0.3-0.6,0.1-1.4-0.5-1.7c-0.6-0.3-1.4-0.1-1.7,0.5l-7.1,12.4h-13.5l-6.8-11.8L-212.3,273.1z"/>
</svg>
