<?xml version="1.0" encoding="utf-8"?>
<!-- Generator: Adobe Illustrator 16.0.0, SVG Export Plug-In . SVG Version: 6.00 Build 0)  -->
<!DOCTYPE svg PUBLIC "-//W3C//DTD SVG 1.1//EN" "http://www.w3.org/Graphics/SVG/1.1/DTD/svg11.dtd">
<svg version="1.1" id="Calque_1" xmlns="http://www.w3.org/2000/svg" xmlns:xlink="http://www.w3.org/1999/xlink" x="0px" y="0px"
	 width="141.73px" height="141.73px" viewBox="0 0 141.73 141.73" enable-background="new 0 0 141.73 141.73" xml:space="preserve">
<g>
	<path d="M99.365,58.365c-5.479,0.26-10.958,0.494-16.438,0.685L66.49,59.579l-16.438,0.408c-5.479,0.145-10.958,0.206-16.438,0.313
		l1.936-1.936c0.117,6.104,0.214,12.208,0.263,18.312l0.194,18.312l0.065,18.312l0.032,9.156l-0.012,9.156l-2.478-2.478
		l16.438,0.058c5.479,0.006,10.958,0.053,16.438,0.121l16.438,0.176l16.438,0.281l-1.842,1.842c0.077-4.917,0.183-9.833,0.317-14.75
		c0.134-4.917,0.221-9.833,0.394-14.75c0.165-4.917,0.291-9.833,0.496-14.75l0.292-7.375l0.343-7.375l0.343,7.375L100,87.365
		c0.205,4.917,0.331,9.833,0.496,14.75c0.173,4.917,0.26,9.833,0.394,14.75c0.135,4.917,0.24,9.833,0.317,14.75l0.028,1.81
		l-1.87,0.032l-16.438,0.281l-16.438,0.176c-5.479,0.068-10.958,0.115-16.438,0.121l-16.438,0.058l-2.475,0.009l-0.003-2.486
		l-0.012-9.156l0.032-9.156l0.065-18.312l0.194-18.312c0.049-6.104,0.146-12.208,0.263-18.312l0.038-1.973l1.898,0.037
		c5.479,0.107,10.958,0.168,16.438,0.313l16.438,0.408l16.438,0.529C88.407,57.871,93.885,58.105,99.365,58.365z"/>
</g>
<g>
	<path d="M42.865,52.365c0,0-0.612-1.801-1.455-5.019c-0.836-3.219-1.942-7.849-2.74-13.535c-0.403-2.843-0.743-5.952-0.791-9.302
		c-0.028-1.675,0.019-3.415,0.199-5.224c0.188-1.811,0.521-3.691,1.35-5.664c0.11-0.246,0.211-0.492,0.333-0.739l0.435-0.742
		c0.134-0.248,0.308-0.493,0.512-0.733l0.295-0.359l0.15-0.178l0.076-0.088c-0.066,0.06,0.133-0.132,0.123-0.122l0.031-0.029
		l0.494-0.461c0.161-0.152,0.318-0.304,0.57-0.491c0.451-0.346,0.936-0.736,1.362-0.985c1.755-1.139,3.617-1.951,5.508-2.596
		c3.784-1.302,7.7-1.92,11.61-2.275c3.915-0.292,7.837-0.276,11.681,0.126c1.923,0.179,3.825,0.481,5.693,0.874
		c1.868,0.394,3.71,0.868,5.488,1.531c1.775,0.659,3.519,1.428,5.119,2.501c0.404,0.25,0.792,0.548,1.172,0.854
		c0.388,0.284,0.746,0.635,1.101,0.978l0.266,0.256l0.032,0.032c-0.011-0.014,0.221,0.24,0.134,0.147l0.048,0.061l0.096,0.123
		l0.191,0.244l0.098,0.128l0.129,0.199c0.167,0.266,0.335,0.543,0.476,0.808l0.301,0.7c0.706,1.854,0.884,3.554,0.982,5.175
		c0.072,1.619,0.019,3.146-0.077,4.6c-0.185,2.905-0.604,5.508-1.027,7.798c-0.408,2.291-0.885,4.26-1.285,5.875
		c-0.812,3.229-1.431,5.029-1.431,5.029s0.19-1.893,0.449-5.189c0.13-1.647,0.251-3.649,0.365-5.933
		c0.097-2.284,0.151-4.862,0.059-7.625c-0.058-1.379-0.164-2.807-0.384-4.23c-0.222-1.405-0.511-2.876-1.076-4.019
		c-0.293-0.848-1.511-1.811-2.785-2.511c-1.305-0.715-2.784-1.325-4.361-1.799c-3.159-0.96-6.648-1.49-10.206-1.778
		c-3.564-0.265-7.225-0.271-10.843,0.025c-3.609,0.298-7.21,0.865-10.5,1.893c-1.636,0.522-3.199,1.152-4.538,1.944
		c-0.371,0.197-0.591,0.385-0.877,0.565c-0.125,0.067-0.3,0.22-0.474,0.372l-0.512,0.441L44.4,14.05
		c-0.032,0.028,0.15-0.142,0.066-0.061l-0.033,0.041l-0.067,0.08l-0.139,0.154c-0.1,0.091-0.194,0.204-0.276,0.348l-0.269,0.394
		l-0.236,0.463c-0.634,1.26-1.012,2.831-1.303,4.387c-0.28,1.569-0.451,3.164-0.544,4.734c-0.163,3.143-0.168,6.175-0.081,8.977
		c0.199,5.607,0.583,10.315,0.867,13.61C42.69,50.478,42.865,52.365,42.865,52.365z"/>
</g>
<g>
	<path d="M73.533,116.865l-21.26,0.189l-0.241,0.002l0.063-0.254c0.861-3.487,1.829-6.938,2.798-10.387
		c1.011-3.435,1.99-6.881,3.069-10.292l0.116,1.234c-0.605-1.001-1.087-1.942-1.554-2.956c-0.458-1.004-0.871-2.038-1.188-3.121
		c-0.626-2.151-1.069-4.499-0.591-7.049c0.243-1.261,0.782-2.567,1.664-3.632c0.867-1.076,2.003-1.877,3.157-2.41
		c1.161-0.545,2.346-0.85,3.507-1.047c1.178-0.195,2.276-0.269,3.467-0.276l0.784,0.017l0.891,0.053
		c0.575,0.051,1.153,0.113,1.739,0.219c1.167,0.202,2.369,0.535,3.544,1.136c1.165,0.601,2.307,1.536,3.06,2.763
		c0.771,1.218,1.076,2.616,1.123,3.884c0.071,2.565-0.655,4.779-1.5,6.837c-0.431,1.03-0.951,2.005-1.492,2.956
		c-0.555,0.958-1.116,1.852-1.789,2.787l0.164-1.32c0.562,1.701,1.09,3.415,1.615,5.13c0.523,1.715,1.069,3.422,1.561,5.149
		c0.499,1.724,1.021,3.44,1.488,5.176c0.484,1.729,0.953,3.465,1.388,5.213c-0.801-1.613-1.568-3.238-2.32-4.87
		c-0.768-1.625-1.483-3.27-2.22-4.906c-0.744-1.635-1.435-3.288-2.147-4.935c-0.711-1.646-1.419-3.293-2.092-4.953l-0.253-0.624
		l0.416-0.697c0.482-0.806,0.964-1.727,1.383-2.618c0.427-0.9,0.792-1.823,1.128-2.737c0.66-1.818,1.104-3.73,0.954-5.363
		c-0.073-0.812-0.308-1.503-0.66-2.057c-0.356-0.553-0.887-0.992-1.577-1.342c-0.696-0.341-1.53-0.575-2.423-0.711
		c-0.444-0.073-0.907-0.114-1.373-0.148l-0.675-0.03l-0.783-0.01c-0.898-0.008-1.894,0.041-2.78,0.178
		c-0.899,0.137-1.758,0.354-2.497,0.688c-1.509,0.663-2.398,1.743-2.803,3.299c-0.395,1.565-0.208,3.484,0.253,5.343
		c0.238,0.934,0.521,1.875,0.857,2.804c0.333,0.917,0.737,1.872,1.149,2.697l0.333,0.668l-0.218,0.566
		c-1.286,3.339-2.67,6.643-4.023,9.958c-1.395,3.301-2.791,6.601-4.293,9.863l-0.179-0.252L73.533,116.865z"/>
</g>
</svg>
