<?xml version="1.0" encoding="utf-8"?>
<!-- Generator: Adobe Illustrator 16.0.0, SVG Export Plug-In . SVG Version: 6.00 Build 0)  -->
<!DOCTYPE svg PUBLIC "-//W3C//DTD SVG 1.1//EN" "http://www.w3.org/Graphics/SVG/1.1/DTD/svg11.dtd">
<svg version="1.1" id="Calque_1" xmlns="http://www.w3.org/2000/svg" xmlns:xlink="http://www.w3.org/1999/xlink" x="0px" y="0px"
	 width="141.73px" height="141.73px" viewBox="0 0 141.73 141.73" enable-background="new 0 0 141.73 141.73" xml:space="preserve">
<g>
	<path fill="#010202" d="M134.595,70.876c0,0-0.013,0.291-0.037,0.853c-0.012,0.281-0.027,0.63-0.045,1.045
		c-0.059,0.42-0.127,0.905-0.204,1.454c-0.37,2.165-1.272,5.379-3.76,8.736c-1.262,1.645-2.902,3.31-5.004,4.728
		c-2.104,1.399-4.68,2.542-7.616,3.083c-1.471,0.279-3.036,0.343-4.506,0.416c-1.506,0.075-3.055,0.152-4.644,0.231
		c-3.18,0.126-6.522,0.308-10.01,0.391c-6.977,0.247-14.533,0.27-22.526,0.19c-7.993-0.085-16.422-0.472-25.142-0.776
		c-4.36-0.149-8.792-0.346-13.28-0.415c-2.244-0.061-4.5-0.088-6.769-0.097c-1.134-0.009-2.271-0.017-3.411-0.025l-0.855-0.007
		l-0.214-0.001l-0.249-0.01l-0.428-0.021c-0.577-0.041-1.127-0.019-1.728-0.11c-2.42-0.25-4.697-0.964-6.839-2.058
		c-2.139-1.076-4.091-2.548-5.729-4.327c-3.335-3.508-5.353-8.329-5.491-13.292l0.031-1.808c0.025-0.595,0.132-1.262,0.202-1.893
		c0.203-1.256,0.478-2.462,0.905-3.646c0.822-2.366,2.084-4.589,3.708-6.52c3.25-3.854,7.982-6.51,13.025-7.128
		c2.623-0.304,4.777-0.194,7.07-0.257c2.269-0.029,4.525-0.057,6.769-0.085c4.487-0.056,8.919-0.112,13.28-0.167
		c4.36-0.074,8.647-0.067,12.843-0.073c4.196-0.024,8.302,0.005,12.298,0.058c7.993,0.072,15.551,0.164,22.526,0.459
		c3.488,0.108,6.831,0.311,10.01,0.458c1.59,0.079,3.139,0.156,4.644,0.23c0.377,0.019,0.75,0.037,1.121,0.055l0.555,0.028
		l0.138,0.007c0.163,0.007,0.124,0.01,0.195,0.015l0.274,0.028c0.739,0.091,1.414,0.098,2.193,0.281
		c3.013,0.553,5.542,1.692,7.666,3.097c2.105,1.421,3.748,3.091,5.01,4.74c2.487,3.364,3.382,6.591,3.744,8.75
		c0.076,0.547,0.143,1.03,0.2,1.447c0.017,0.421,0.031,0.774,0.043,1.06c0.022,0.569,0.034,0.863,0.034,0.863V70.876z
		 M134.136,70.864c0,0-0.018-0.287-0.052-0.842c-0.017-0.277-0.038-0.622-0.062-1.032c-0.064-0.405-0.14-0.874-0.224-1.405
		c-0.186-1.057-0.538-2.341-1.121-3.783c-0.626-1.417-1.479-3.011-2.784-4.52c-1.274-1.523-2.944-3.002-5.023-4.146
		c-2.046-1.159-4.565-1.98-7.174-2.184c-0.614-0.1-1.39-0.043-2.106-0.059l-0.275,0c-0.02,0.001-0.149-0.001-0.079,0.001
		l-0.138,0.007l-0.555,0.028c-0.371,0.018-0.744,0.037-1.121,0.055c-1.505,0.075-3.054,0.151-4.644,0.23
		c-3.179,0.147-6.521,0.35-10.01,0.458c-6.976,0.295-14.533,0.387-22.526,0.459c-3.996,0.053-8.102,0.082-12.298,0.058
		c-4.196-0.006-8.483,0.001-12.843-0.073c-4.36-0.055-8.792-0.11-13.28-0.167c-2.244-0.028-4.5-0.056-6.769-0.085
		c-2.241-0.008-4.659-0.121-6.593,0.037c-4.079,0.37-8.037,2.329-10.938,5.387c-2.939,3.055-4.729,7.188-4.897,11.577
		c-0.127,4.353,1.387,8.769,4.255,12.152c1.443,1.676,3.194,3.09,5.138,4.15c1.937,1.049,4.126,1.731,6.259,1.979
		c0.53,0.094,1.13,0.081,1.691,0.127l0.428,0.022l0.179,0.004l0.214-0.001l0.855-0.007c1.14-0.009,2.277-0.017,3.411-0.025
		c2.269-0.009,4.525-0.036,6.769-0.097c4.487-0.069,8.92-0.266,13.28-0.415c8.72-0.305,17.149-0.691,25.142-0.776
		c7.993-0.079,15.55-0.057,22.526,0.19c3.487,0.083,6.83,0.265,10.01,0.391c1.589,0.079,3.138,0.156,4.644,0.231
		c1.537,0.077,2.91,0.155,4.244,0.034c2.686-0.216,5.158-1.035,7.224-2.2c2.082-1.147,3.754-2.631,5.027-4.159
		c1.304-1.514,2.158-3.11,2.779-4.531c0.579-1.443,0.929-2.735,1.109-3.786c0.083-0.528,0.156-0.995,0.22-1.398
		c0.023-0.415,0.044-0.764,0.061-1.045c0.032-0.562,0.049-0.853,0.049-0.853V70.864z"/>
</g>
<g>
	<g>
		<path fill="#010202" d="M59.031,70.865c0,0-0.008,0.18-0.022,0.517c-0.018,0.335-0.069,0.833-0.236,1.441
			c-0.31,1.203-1.141,2.936-2.939,4.229c-0.893,0.635-2.017,1.125-3.28,1.316c-0.319,0.037-0.63,0.068-0.976,0.075
			c-0.319-0.01-0.631,0.005-0.979-0.051c-0.689-0.062-1.35-0.255-2.011-0.51c-0.659-0.262-1.279-0.642-1.864-1.084
			c-0.574-0.458-1.076-1.016-1.515-1.627c-0.867-1.237-1.322-2.771-1.343-4.308c0.017-0.734,0.125-1.54,0.35-2.267
			c0.236-0.728,0.562-1.422,0.992-2.042c0.439-0.612,0.942-1.168,1.515-1.629c0.585-0.442,1.205-0.822,1.864-1.083
			c1.308-0.533,2.719-0.665,3.958-0.486c1.284,0.193,2.394,0.683,3.291,1.318c1.798,1.295,2.629,3.027,2.938,4.231
			c0.167,0.608,0.219,1.106,0.236,1.441C59.023,70.686,59.031,70.865,59.031,70.865z M59.031,70.865c0,0-0.01-0.18-0.029-0.517
			c-0.022-0.334-0.08-0.831-0.255-1.434c-0.174-0.601-0.445-1.328-0.951-2.042c-0.494-0.715-1.177-1.451-2.086-2.011
			c-0.9-0.558-2.02-0.955-3.196-1.055c-1.215-0.095-2.482,0.119-3.644,0.678c-1.157,0.563-2.175,1.465-2.897,2.581
			c-0.352,0.564-0.624,1.178-0.826,1.815c-0.188,0.649-0.265,1.28-0.282,1.985c0.012,0.671,0.093,1.342,0.281,1.985
			c0.204,0.637,0.472,1.252,0.825,1.815c0.723,1.116,1.74,2.021,2.898,2.583c0.578,0.268,1.193,0.489,1.795,0.582
			c0.292,0.071,0.625,0.08,0.938,0.109c0.288,0.012,0.605,0.003,0.9-0.013c1.197-0.104,2.303-0.498,3.207-1.058
			c0.909-0.56,1.591-1.296,2.085-2.011c0.507-0.716,0.777-1.443,0.951-2.043c0.175-0.604,0.233-1.1,0.255-1.435
			C59.021,71.045,59.031,70.865,59.031,70.865z"/>
	</g>
	<g>
		<path fill="#010202" d="M78.198,70.865c0,0-0.008,0.18-0.022,0.517c-0.018,0.335-0.069,0.833-0.236,1.441
			c-0.31,1.203-1.141,2.936-2.939,4.229c-0.893,0.635-2.017,1.125-3.28,1.316c-0.319,0.037-0.63,0.068-0.976,0.075
			c-0.319-0.01-0.631,0.005-0.979-0.051c-0.689-0.062-1.35-0.255-2.011-0.51c-0.659-0.262-1.279-0.642-1.864-1.084
			c-0.574-0.458-1.076-1.016-1.515-1.627c-0.867-1.237-1.322-2.771-1.343-4.308c0.017-0.734,0.125-1.54,0.35-2.267
			c0.236-0.728,0.562-1.422,0.992-2.042c0.439-0.612,0.942-1.168,1.515-1.629c0.585-0.442,1.205-0.822,1.864-1.083
			c1.308-0.533,2.719-0.665,3.958-0.486c1.284,0.193,2.393,0.683,3.291,1.318c1.798,1.295,2.629,3.027,2.938,4.231
			c0.167,0.608,0.219,1.106,0.236,1.441C78.19,70.686,78.198,70.865,78.198,70.865z M78.198,70.865c0,0-0.011-0.18-0.029-0.517
			c-0.022-0.334-0.08-0.831-0.255-1.434c-0.175-0.601-0.445-1.328-0.951-2.042c-0.494-0.715-1.178-1.451-2.086-2.011
			c-0.9-0.558-2.021-0.955-3.196-1.055c-1.215-0.095-2.482,0.119-3.644,0.678c-1.157,0.563-2.175,1.465-2.897,2.581
			c-0.352,0.564-0.624,1.178-0.826,1.815c-0.188,0.649-0.265,1.28-0.282,1.985c0.012,0.671,0.093,1.342,0.281,1.985
			c0.204,0.637,0.472,1.252,0.825,1.815c0.723,1.116,1.74,2.021,2.898,2.583c0.578,0.268,1.193,0.489,1.795,0.582
			c0.292,0.071,0.625,0.08,0.938,0.109c0.288,0.012,0.605,0.003,0.9-0.013c1.197-0.104,2.302-0.498,3.208-1.058
			c0.908-0.56,1.591-1.296,2.085-2.011c0.507-0.716,0.776-1.443,0.951-2.043c0.175-0.604,0.232-1.1,0.255-1.435
			C78.188,71.045,78.198,70.865,78.198,70.865z"/>
	</g>
	<g>
		<path fill="#010202" d="M97.365,70.865c0,0-0.008,0.18-0.022,0.517c-0.018,0.335-0.069,0.833-0.236,1.441
			c-0.31,1.203-1.141,2.936-2.939,4.229c-0.893,0.635-2.017,1.125-3.279,1.316c-0.319,0.037-0.63,0.068-0.976,0.075
			c-0.32-0.01-0.632,0.005-0.979-0.051c-0.689-0.062-1.35-0.255-2.012-0.51c-0.658-0.262-1.278-0.642-1.863-1.084
			c-0.574-0.458-1.076-1.016-1.515-1.627c-0.867-1.237-1.322-2.771-1.344-4.308c0.018-0.734,0.126-1.54,0.351-2.267
			c0.235-0.728,0.562-1.422,0.991-2.042c0.438-0.612,0.941-1.168,1.515-1.629c0.585-0.442,1.205-0.822,1.864-1.083
			c1.308-0.533,2.719-0.665,3.958-0.486c1.283,0.193,2.393,0.683,3.29,1.318c1.798,1.295,2.629,3.027,2.938,4.231
			c0.167,0.608,0.219,1.106,0.236,1.441C97.357,70.686,97.365,70.865,97.365,70.865z M97.365,70.865c0,0-0.011-0.18-0.029-0.517
			c-0.022-0.334-0.08-0.831-0.255-1.434c-0.175-0.601-0.445-1.328-0.951-2.042c-0.494-0.715-1.178-1.451-2.086-2.011
			c-0.9-0.558-2.021-0.955-3.196-1.055c-1.215-0.095-2.481,0.119-3.644,0.678c-1.157,0.563-2.175,1.465-2.897,2.581
			c-0.352,0.564-0.624,1.178-0.826,1.815c-0.188,0.649-0.265,1.28-0.281,1.985c0.012,0.671,0.093,1.342,0.28,1.985
			c0.204,0.637,0.473,1.252,0.825,1.815c0.724,1.116,1.74,2.021,2.898,2.583c0.578,0.268,1.193,0.489,1.796,0.582
			c0.291,0.071,0.625,0.08,0.938,0.109c0.287,0.012,0.605,0.003,0.9-0.013c1.196-0.104,2.302-0.498,3.207-1.058
			c0.908-0.56,1.591-1.296,2.085-2.011c0.507-0.716,0.776-1.443,0.951-2.043c0.175-0.604,0.232-1.1,0.255-1.435
			C97.355,71.045,97.365,70.865,97.365,70.865z"/>
	</g>
</g>
</svg>
