<?xml version="1.0" encoding="utf-8"?>
<!-- Generator: Adobe Illustrator 16.0.0, SVG Export Plug-In . SVG Version: 6.00 Build 0)  -->
<!DOCTYPE svg PUBLIC "-//W3C//DTD SVG 1.1//EN" "http://www.w3.org/Graphics/SVG/1.1/DTD/svg11.dtd">
<svg version="1.1" id="Calque_1" xmlns="http://www.w3.org/2000/svg" xmlns:xlink="http://www.w3.org/1999/xlink" x="0px" y="0px"
	 width="141.73px" height="141.73px" viewBox="0 0 141.73 141.73" enable-background="new 0 0 141.73 141.73" xml:space="preserve">
<g>
	<path d="M130.333,70.865c0,0-0.008,0.365-0.024,1.072c-0.029,0.707-0.001,1.757-0.127,3.121c-0.163,2.729-0.614,6.743-1.946,11.685
		c-0.623,2.481-1.573,5.158-2.761,8.004c-1.2,2.842-2.712,5.834-4.631,8.852c-3.811,6.041-9.29,12.186-16.523,17.338
		c-7.24,5.095-16.331,9.078-26.547,10.534c-1.272,0.2-2.566,0.296-3.866,0.438c-1.312,0.053-2.599,0.188-3.962,0.171
		c-0.644,0.003-1.29,0.006-1.938,0.009c-0.654-0.004-1.348-0.054-2.024-0.079c-1.375-0.036-2.708-0.2-4.066-0.326
		c-2.7-0.343-5.431-0.792-8.128-1.516c-1.363-0.312-2.692-0.766-4.045-1.17c-1.324-0.483-2.679-0.922-3.981-1.503
		c-5.275-2.174-10.332-5.16-14.955-8.837c-4.609-3.699-8.71-8.152-12.154-13.134c-1.728-2.489-3.239-5.14-4.609-7.872
		c-1.346-2.746-2.435-5.624-3.375-8.552c-0.933-2.934-1.584-5.956-2.065-9.004c-0.204-1.53-0.415-3.061-0.506-4.603
		c-0.062-0.77-0.128-1.54-0.135-2.312L7.9,70.776c0.05-1.483,0.035-2.848,0.191-4.488c0.094-1.603,0.306-3.125,0.509-4.652
		c0.487-3.047,1.125-6.073,2.06-9.007c0.94-2.928,2.032-5.805,3.374-8.554c1.36-2.737,2.88-5.385,4.606-7.875
		c3.443-4.985,7.552-9.431,12.153-13.142c4.625-3.678,9.685-6.665,14.961-8.838c1.302-0.583,2.659-1.016,3.981-1.506
		c1.354-0.405,2.684-0.857,4.047-1.17c2.698-0.723,5.43-1.171,8.131-1.514c1.357-0.127,2.701-0.291,4.047-0.324
		c1.342-0.087,2.678-0.088,4.003-0.072l1.034,0.01l0.959,0.053c0.639,0.036,1.276,0.071,1.911,0.107
		c1.307,0.14,2.637,0.239,3.906,0.44c10.219,1.458,19.309,5.448,26.551,10.543c7.233,5.154,12.709,11.304,16.521,17.344
		c1.918,3.018,3.432,6.01,4.629,8.853c1.188,2.846,2.138,5.523,2.761,8.004c1.331,4.941,1.782,8.956,1.945,11.684
		c0.126,1.364,0.098,2.415,0.127,3.121C130.325,70.5,130.333,70.865,130.333,70.865z M130.333,70.865c0,0-0.011-0.365-0.03-1.071
		c-0.034-0.706-0.011-1.757-0.146-3.12c-0.191-2.722-0.625-6.743-2.039-11.653c-1.397-4.893-3.725-10.73-7.75-16.576
		c-3.98-5.833-9.543-11.786-16.888-16.396c-3.659-2.303-7.717-4.294-12.092-5.822c-4.379-1.517-9.094-2.477-13.962-2.896
		c-1.219-0.118-2.416-0.129-3.643-0.191c-0.636,0.003-1.273,0.007-1.914,0.01l-0.961,0.005l-0.893,0.049
		c-1.249,0.061-2.501,0.137-3.754,0.297c-1.257,0.106-2.506,0.34-3.763,0.533c-5.008,0.906-9.99,2.479-14.719,4.746
		c-4.741,2.241-9.213,5.207-13.231,8.751c-2.018,1.764-3.907,3.689-5.689,5.718c-1.776,2.038-3.375,4.236-4.86,6.512
		c-2.912,4.592-5.217,9.6-6.769,14.854c-0.775,2.627-1.329,5.319-1.75,8.031c-0.171,1.364-0.354,2.734-0.422,4.048
		c-0.134,1.267-0.11,2.826-0.163,4.259l0.048,1.974c0,0.688,0.056,1.373,0.109,2.059c0.07,1.373,0.255,2.734,0.425,4.098
		c0.427,2.711,0.967,5.405,1.745,8.033c1.558,5.252,3.848,10.269,6.764,14.859c1.486,2.276,3.085,4.476,4.862,6.514
		c1.781,2.031,3.677,3.949,5.687,5.725c4.021,3.545,8.495,6.512,13.238,8.753c4.728,2.273,9.714,3.841,14.724,4.748
		c1.256,0.192,2.515,0.427,3.744,0.53c0.623,0.062,1.222,0.146,1.861,0.19c0.646,0.036,1.292,0.071,1.935,0.107
		c1.21,0.094,2.481,0.037,3.711,0.064c1.232-0.061,2.467-0.075,3.683-0.192c4.869-0.421,9.586-1.38,13.965-2.901
		c4.375-1.53,8.433-3.521,12.093-5.826c7.345-4.611,12.903-10.569,16.885-16.401c4.025-5.847,6.349-11.685,7.748-16.577
		c1.412-4.91,1.848-8.932,2.038-11.653c0.135-1.362,0.111-2.414,0.146-3.12C130.322,71.23,130.333,70.865,130.333,70.865z"/>
</g>
<g>
	<path d="M55.767,45.698c0,0,0.49,0.676,1.273,1.891c0.388,0.609,0.871,1.344,1.38,2.207c0.492,0.876,0.993,1.917,1.528,3.059
		c0.261,0.573,0.571,1.164,0.823,1.793c0.232,0.637,0.473,1.295,0.72,1.972c0.236,0.684,0.479,1.386,0.726,2.104
		c0.186,0.738,0.375,1.492,0.567,2.258c0.425,1.529,0.651,3.156,0.871,4.812c0.134,0.825,0.187,1.667,0.218,2.512
		c0.03,0.846,0.098,1.695,0.094,2.545c-0.075,1.7-0.091,3.403-0.36,5.057c-0.161,1.668-0.559,3.268-0.894,4.814
		c-0.426,1.527-0.843,2.998-1.366,4.344c-0.47,1.363-1.062,2.592-1.572,3.729c-1.063,2.26-2.105,4.043-2.836,5.287
		c-0.726,1.242-1.173,1.949-1.173,1.949s0.035-0.205,0.1-0.588c0.079-0.379,0.161-0.953,0.333-1.654
		c0.163-0.703,0.353-1.564,0.604-2.529c0.241-0.963,0.512-2.049,0.809-3.232c0.26-1.186,0.587-2.451,0.843-3.799
		c0.309-1.338,0.517-2.762,0.784-4.217c0.173-1.471,0.422-2.973,0.511-4.516c0.166-1.535,0.167-3.102,0.219-4.665
		c0.016-0.781-0.04-1.563-0.054-2.344c-0.026-0.779-0.015-1.558-0.115-2.326c-0.076-0.769-0.137-1.533-0.193-2.291
		c-0.038-0.76-0.215-1.495-0.296-2.231c-0.101-0.736-0.2-1.459-0.296-2.167c-0.142-0.703-0.28-1.391-0.415-2.061
		c-0.127-0.676-0.25-1.333-0.37-1.969c-0.118-0.637-0.295-1.229-0.431-1.813c-0.282-1.178-0.541-2.259-0.77-3.216
		c-0.299-0.956-0.52-1.807-0.712-2.503C55.939,46.515,55.767,45.698,55.767,45.698z"/>
</g>
<g>
	<path d="M65.307,32.365c0,0,0.183,0.261,0.524,0.75c0.326,0.496,0.838,1.208,1.423,2.144c0.594,0.932,1.333,2.056,2.112,3.375
		c0.752,1.342,1.517,2.934,2.354,4.674c0.405,0.874,0.864,1.785,1.247,2.749c0.354,0.974,0.722,1.981,1.098,3.017
		c0.376,1.039,0.743,2.114,1.11,3.218c0.303,1.122,0.574,2.279,0.867,3.455c0.65,2.339,0.996,4.828,1.332,7.361
		c0.205,1.262,0.285,2.549,0.334,3.844c0.045,1.293,0.149,2.592,0.143,3.892c-0.113,2.6-0.139,5.208-0.549,7.737
		c-0.159,1.27-0.297,2.531-0.59,3.75c-0.258,1.225-0.491,2.438-0.777,3.615c-0.652,2.336-1.289,4.586-2.091,6.643
		c-0.726,2.086-1.611,3.969-2.388,5.713c-0.832,1.719-1.63,3.273-2.383,4.617c-0.721,1.363-1.414,2.508-1.972,3.463
		c-1.111,1.902-1.795,2.984-1.795,2.984s0.053-0.314,0.153-0.9c0.121-0.58,0.246-1.459,0.509-2.529
		c0.249-1.078,0.54-2.396,0.924-3.869c0.363-1.475,0.773-3.139,1.221-4.953c0.209-0.9,0.427-1.838,0.653-2.811
		c0.241-0.963,0.456-1.965,0.652-2.996c0.474-2.045,0.792-4.223,1.199-6.449c0.265-2.248,0.646-4.547,0.781-6.906
		c0.253-2.35,0.256-4.746,0.335-7.137c0.024-1.196-0.061-2.393-0.083-3.585l-0.04-1.786c0.005-0.595-0.095-1.183-0.136-1.772
		c-0.116-1.176-0.21-2.346-0.296-3.505c-0.027-0.582-0.109-1.153-0.207-1.719c-0.083-0.569-0.164-1.134-0.246-1.694
		c-0.154-1.123-0.323-2.226-0.453-3.316c-0.217-1.075-0.428-2.127-0.634-3.152c-0.195-1.034-0.386-2.039-0.569-3.012
		c-0.184-0.973-0.469-1.873-0.671-2.77c-0.456-1.775-0.774-3.447-1.162-4.926c-0.457-1.462-0.795-2.764-1.089-3.829
		c-0.302-1.062-0.487-1.918-0.637-2.493C65.378,32.675,65.307,32.365,65.307,32.365z"/>
</g>
<g>
	<path d="M79.492,17.698c0,0,0.252,0.36,0.724,1.035c0.45,0.685,1.157,1.668,1.966,2.96c0.82,1.287,1.836,2.841,2.931,4.655
		c1.043,1.851,2.071,4.062,3.235,6.461c0.561,1.208,1.194,2.464,1.723,3.795c0.49,1.346,0.996,2.736,1.516,4.166
		c0.52,1.435,1.026,2.92,1.534,4.444c0.417,1.549,0.793,3.147,1.197,4.771c0.197,0.813,0.396,1.634,0.597,2.46l0.288,1.248
		c0.083,0.42,0.134,0.847,0.203,1.273c0.264,1.705,0.522,3.435,0.752,5.185c0.283,1.743,0.394,3.521,0.46,5.309
		c0.062,1.786,0.207,3.58,0.198,5.375c-0.157,3.59-0.192,7.19-0.76,10.686c-0.219,1.752-0.409,3.494-0.813,5.178
		c-0.356,1.691-0.679,3.365-1.074,4.992c-0.901,3.225-1.78,6.33-2.887,9.174c-1.003,2.879-2.225,5.48-3.299,7.887
		c-1.157,2.371-2.232,4.527-3.273,6.383c-1.016,1.873-1.968,3.459-2.738,4.775c-1.534,2.629-2.479,4.121-2.479,4.121
		c0,0,0.073-0.432,0.211-1.242c0.166-0.801,0.34-2.016,0.703-3.494c0.343-1.486,0.75-3.307,1.26-5.35
		c0.508-2.033,1.078-4.328,1.701-6.832c0.289-1.244,0.591-2.539,0.902-3.881c0.145-0.672,0.334-1.342,0.479-2.033
		c0.139-0.691,0.279-1.393,0.422-2.104c0.652-2.824,1.093-5.834,1.655-8.906c0.365-3.107,0.893-6.281,1.079-9.539
		c0.35-3.244,0.354-6.553,0.464-9.855c0.032-1.652-0.084-3.305-0.115-4.952c-0.03-0.823-0.047-1.646-0.056-2.467
		c0.007-0.822-0.131-1.634-0.188-2.447c-0.161-1.624-0.29-3.239-0.408-4.84c-0.035-0.399-0.052-0.8-0.102-1.196l-0.186-1.178
		c-0.113-0.785-0.227-1.565-0.339-2.338c-0.214-1.551-0.446-3.074-0.625-4.579c-0.299-1.485-0.592-2.938-0.876-4.353
		c-0.27-1.427-0.531-2.816-0.785-4.159c-0.256-1.344-0.648-2.586-0.928-3.825c-0.621-2.456-1.088-4.752-1.619-6.796
		c-0.611-2.028-1.085-3.823-1.489-5.294c-0.417-1.466-0.673-2.649-0.879-3.442C79.59,18.126,79.492,17.698,79.492,17.698z"/>
</g>
</svg>
