<?xml version="1.0" encoding="utf-8"?>
<!-- Generator: Adobe Illustrator 16.0.0, SVG Export Plug-In . SVG Version: 6.00 Build 0)  -->
<!DOCTYPE svg PUBLIC "-//W3C//DTD SVG 1.1//EN" "http://www.w3.org/Graphics/SVG/1.1/DTD/svg11.dtd">
<svg version="1.1" id="Calque_1" xmlns="http://www.w3.org/2000/svg" xmlns:xlink="http://www.w3.org/1999/xlink" x="0px" y="0px"
	 width="141.73px" height="141.73px" viewBox="0 0 141.73 141.73" enable-background="new 0 0 141.73 141.73" xml:space="preserve">
<g>
	<path d="M50.201,40.879c-1.061,1.495-2.173,2.938-3.294,4.374c-1.116,1.44-2.28,2.832-3.417,4.25
		c-2.309,2.802-4.683,5.54-7.088,8.246c-2.408,2.704-4.863,5.361-7.348,7.987c-2.485,2.627-5.014,5.209-7.562,7.773v-3.92
		c2.561,2.569,5.099,5.161,7.595,7.792c2.491,2.639,4.963,5.296,7.376,8.012c2.416,2.715,4.797,5.462,7.115,8.273
		c1.141,1.424,2.307,2.822,3.427,4.267c1.124,1.441,2.239,2.891,3.303,4.392c-1.501-1.063-2.951-2.179-4.392-3.303
		c-1.444-1.12-2.843-2.286-4.267-3.427c-2.812-2.317-5.56-4.699-8.273-7.114c-2.716-2.413-5.374-4.885-8.012-7.376
		c-2.632-2.497-5.224-5.034-7.792-7.596l-1.97-1.963l1.969-1.958c2.564-2.547,5.146-5.077,7.773-7.562
		c2.626-2.486,5.283-4.94,7.986-7.348c2.707-2.406,5.444-4.779,8.247-7.089c1.418-1.137,2.81-2.301,4.25-3.417
		C47.263,43.052,48.707,41.94,50.201,40.879z"/>
</g>
<g>
	<polygon points="130.623,75.602 37.886,71.602 130.623,67.602 	"/>
</g>
</svg>
