<?xml version="1.0" encoding="utf-8"?>
<!-- Generator: Adobe Illustrator 16.0.0, SVG Export Plug-In . SVG Version: 6.00 Build 0)  -->
<!DOCTYPE svg PUBLIC "-//W3C//DTD SVG 1.1//EN" "http://www.w3.org/Graphics/SVG/1.1/DTD/svg11.dtd">
<svg version="1.1" id="Calque_1" xmlns="http://www.w3.org/2000/svg" xmlns:xlink="http://www.w3.org/1999/xlink" x="0px" y="0px"
	 width="141.73px" height="141.73px" viewBox="0 0 141.73 141.73" enable-background="new 0 0 141.73 141.73" xml:space="preserve">
<g>
	<path d="M132.771,130.722l-15.064,0.607l-15.064,0.506l-15.064,0.442l-15.064,0.416l-30.129,0.659l-15.064,0.264l-15.064,0.235
		l-3.081,0.048l-0.049-3.178l-0.23-14.734L8.75,101.252L8.473,71.783c-0.061-4.912-0.057-9.823-0.077-14.735L8.35,42.313
		L8.258,12.844l-0.013-4.01l4.01,0.012l30.129,0.09l15.064,0.048c5.021,0.02,10.043,0.017,15.065,0.079l30.129,0.286l15.064,0.158
		l15.064,0.237l3.153,0.049l-0.053,3.051c-0.171,9.823-0.271,19.646-0.501,29.469l-0.654,29.47l-0.409,14.734l-0.438,14.734
		l-0.5,14.735L132.771,130.722z M132.771,130.722l-0.598-14.734l-0.5-14.735l-0.438-14.734l-0.409-14.734l-0.654-29.47
		c-0.229-9.823-0.33-19.646-0.501-29.469l3.101,3.101l-15.064,0.237l-15.064,0.158l-30.129,0.286
		c-5.022,0.062-10.043,0.059-15.065,0.079l-15.064,0.048l-30.129,0.09l3.998-3.998l-0.092,29.469l-0.046,14.735
		c-0.02,4.912-0.016,9.823-0.077,14.735l-0.278,29.469l-0.145,14.735l-0.23,14.734l-3.13-3.13l15.064,0.235l15.064,0.264
		l30.129,0.659l15.064,0.416l15.064,0.442l15.064,0.506L132.771,130.722z"/>
</g>
<g>
	<path d="M27.185,27.09c0,0,0.43,0.276,1.237,0.792c0.787,0.536,1.976,1.289,3.422,2.313c2.913,2.03,6.984,5.017,11.703,8.771
		c4.721,3.75,10.088,8.267,15.667,13.277c1.407,1.24,2.806,2.533,4.222,3.842c1.421,1.303,2.854,2.628,4.269,3.993
		c2.867,2.693,5.703,5.504,8.548,8.307c2.803,2.845,5.62,5.676,8.312,8.542c1.363,1.417,2.696,2.842,3.995,4.267
		c1.306,1.42,2.605,2.812,3.844,4.22c5.012,5.578,9.528,10.945,13.277,15.668c3.752,4.72,6.737,8.794,8.764,11.709
		c1.022,1.448,1.775,2.637,2.311,3.426c0.516,0.808,0.791,1.238,0.791,1.238s-0.431-0.275-1.238-0.791
		c-0.789-0.535-1.978-1.288-3.426-2.311c-2.915-2.026-6.989-5.012-11.709-8.764c-4.723-3.749-10.09-8.266-15.668-13.277
		c-1.408-1.238-2.8-2.538-4.22-3.844c-1.425-1.299-2.85-2.632-4.267-3.995c-2.866-2.692-5.697-5.51-8.542-8.312
		c-2.802-2.846-5.614-5.682-8.307-8.548c-1.364-1.416-2.69-2.848-3.993-4.269c-1.309-1.416-2.602-2.814-3.842-4.222
		c-5.01-5.58-9.526-10.946-13.277-15.667c-3.753-4.719-6.741-8.791-8.771-11.703c-1.024-1.447-1.777-2.635-2.313-3.422
		C27.46,27.52,27.185,27.09,27.185,27.09z"/>
</g>
<g>
	<path d="M27.185,117.453c0,0,0.276-0.431,0.792-1.237c0.536-0.787,1.289-1.976,2.313-3.423c2.03-2.912,5.017-6.984,8.771-11.702
		c3.75-4.722,8.267-10.088,13.277-15.668c1.24-1.407,2.533-2.806,3.842-4.222c1.303-1.422,2.628-2.854,3.993-4.27
		c2.693-2.866,5.504-5.702,8.307-8.548c2.845-2.803,5.676-5.62,8.542-8.312c1.417-1.363,2.842-2.696,4.267-3.995
		c1.42-1.306,2.812-2.605,4.22-3.844c5.578-5.012,10.945-9.528,15.668-13.277c4.72-3.752,8.794-6.737,11.709-8.764
		c1.448-1.022,2.637-1.775,3.426-2.31c0.808-0.516,1.238-0.791,1.238-0.791s-0.275,0.431-0.791,1.238
		c-0.535,0.789-1.288,1.978-2.311,3.426c-2.026,2.915-5.012,6.989-8.764,11.709c-3.749,4.723-8.266,10.089-13.277,15.667
		c-1.238,1.409-2.538,2.801-3.844,4.22c-1.299,1.425-2.632,2.85-3.995,4.267c-2.692,2.867-5.51,5.698-8.312,8.542
		c-2.846,2.802-5.682,5.614-8.548,8.307c-1.416,1.364-2.848,2.689-4.269,3.993c-1.416,1.308-2.814,2.602-4.222,3.842
		c-5.58,5.01-10.946,9.526-15.667,13.276c-4.719,3.753-8.791,6.741-11.703,8.771c-1.447,1.023-2.635,1.776-3.422,2.312
		C27.615,117.178,27.185,117.453,27.185,117.453z"/>
</g>
</svg>
