<?xml version="1.0" encoding="utf-8"?>
<!-- Generator: Adobe Illustrator 16.0.0, SVG Export Plug-In . SVG Version: 6.00 Build 0)  -->
<!DOCTYPE svg PUBLIC "-//W3C//DTD SVG 1.1//EN" "http://www.w3.org/Graphics/SVG/1.1/DTD/svg11.dtd">
<svg version="1.1" id="Calque_1" xmlns="http://www.w3.org/2000/svg" xmlns:xlink="http://www.w3.org/1999/xlink" x="0px" y="0px"
	 width="141.73px" height="141.73px" viewBox="0 0 141.73 141.73" enable-background="new 0 0 141.73 141.73" xml:space="preserve">
<g>
	<path d="M12.667,97.822c-0.374-3.124-0.727-6.248-1.007-9.373c-0.279-3.124-0.61-6.248-0.826-9.372l-0.719-9.373l-0.567-9.373
		c-0.182-3.124-0.396-6.249-0.528-9.373C8.872,47.834,8.71,44.71,8.6,41.585c-0.118-3.124-0.261-6.249-0.345-9.373L7.98,22.84
		l-0.134-4.581l4.821-0.106l8.322-0.184l8.322-0.125c2.773-0.033,5.547-0.085,8.321-0.086l8.322-0.037
		c2.774-0.023,5.548,0.015,8.322,0.019l8.321,0.051c5.548,0.075,11.096,0.132,16.644,0.276l2.08,0.054l1.294,1.344
		c2.779,2.886,5.527,5.803,8.269,8.727c2.756,2.909,5.461,5.868,8.185,8.809l-2.832-1.173l9.767,0.456l4.884,0.284l4.884,0.296
		c3.255,0.206,6.511,0.367,9.767,0.643l4.883,0.377c1.628,0.13,3.256,0.241,4.884,0.388l1.575,0.142l-0.014,1.419l-0.752,78.499
		l-0.008,0.814l-0.802-0.005l-122.636-0.81l122.636-0.81l-0.81,0.81l-0.752-78.499l1.562,1.562
		c-1.628,0.147-3.256,0.257-4.884,0.388l-4.883,0.377c-3.256,0.276-6.512,0.437-9.767,0.643l-4.884,0.296l-4.884,0.284l-9.767,0.456
		l-1.49,0.07l-1.342-1.243c-2.941-2.724-5.901-5.429-8.811-8.185c-2.924-2.74-5.841-5.488-8.727-8.267l3.374,1.398
		c-5.548,0.144-11.096,0.201-16.644,0.276l-8.321,0.051c-2.774,0.004-5.548,0.042-8.322,0.019l-8.322-0.037
		c-2.774-0.001-5.548-0.053-8.321-0.086l-8.322-0.125l-8.322-0.184l4.687-4.687l-0.275,9.373c-0.083,3.124-0.227,6.249-0.345,9.373
		c-0.111,3.125-0.272,6.249-0.42,9.373c-0.132,3.124-0.346,6.249-0.528,9.373l-0.567,9.373L14.5,79.077
		c-0.216,3.124-0.547,6.248-0.826,9.372C13.394,91.574,13.041,94.698,12.667,97.822z"/>
</g>
</svg>
