<?xml version="1.0" encoding="utf-8"?>
<!-- Generator: Adobe Illustrator 16.0.0, SVG Export Plug-In . SVG Version: 6.00 Build 0)  -->
<!DOCTYPE svg PUBLIC "-//W3C//DTD SVG 1.1//EN" "http://www.w3.org/Graphics/SVG/1.1/DTD/svg11.dtd">
<svg version="1.1" id="Calque_1" xmlns="http://www.w3.org/2000/svg" xmlns:xlink="http://www.w3.org/1999/xlink" x="0px" y="0px"
	 width="141.73px" height="141.73px" viewBox="0 0 141.73 141.73" enable-background="new 0 0 141.73 141.73" xml:space="preserve">
<g>
	<path fill="#010202" d="M63.945,51.665c0,0-0.024,0.455-0.07,1.307c-0.001,0.855-0.215,2.095-0.575,3.65
		c-0.407,1.537-1.124,3.368-2.304,5.262c-0.569,0.963-1.326,1.887-2.159,2.828c-0.881,0.893-1.833,1.824-2.972,2.622
		c-2.259,1.63-5.066,2.875-8.328,3.362c-0.39,0.037-0.782,0.074-1.177,0.111l-0.594,0.056l-0.299,0.028
		c-0.046,0.001,0.051,0.003-0.113,0.003l-0.038-0.001l-0.075-0.001l-0.15-0.002c-0.809-0.024-1.596,0.015-2.48-0.125
		c-1.753-0.156-3.427-0.64-5.108-1.283c-1.673-0.661-3.249-1.62-4.736-2.74c-1.46-1.162-2.736-2.576-3.854-4.126
		c-1.092-1.573-1.932-3.333-2.529-5.182c-0.568-1.862-0.841-3.807-0.896-5.758c0.068-1.065,0.046-1.806,0.245-2.875
		c0.121-1.017,0.391-1.947,0.643-2.884c0.598-1.848,1.426-3.614,2.521-5.187c1.115-1.553,2.393-2.965,3.849-4.133
		c1.484-1.125,3.057-2.094,4.731-2.758c1.669-0.656,3.383-1.127,5.092-1.278c0.848-0.135,1.698-0.103,2.529-0.122l0.357-0.001
		l0.298,0.032l0.593,0.063c0.395,0.042,0.787,0.083,1.176,0.125c3.236,0.483,6.055,1.775,8.315,3.365
		c2.23,1.61,3.99,3.527,5.158,5.418c0.307,0.465,0.529,0.962,0.784,1.416c0.123,0.229,0.243,0.455,0.36,0.676
		c0.094,0.232,0.187,0.46,0.277,0.683c0.181,0.446,0.354,0.874,0.52,1.283c0.136,0.419,0.232,0.83,0.341,1.213
		c0.101,0.386,0.213,0.748,0.288,1.094c0.051,0.352,0.099,0.681,0.143,0.988c0.079,0.614,0.193,1.132,0.186,1.561
		C63.927,51.21,63.945,51.665,63.945,51.665z M63.945,51.665c0,0-0.024-0.455-0.071-1.307c0.001-0.429-0.12-0.943-0.207-1.555
		c-0.049-0.305-0.101-0.633-0.157-0.983c-0.079-0.345-0.196-0.704-0.302-1.087c-0.114-0.38-0.215-0.788-0.356-1.203
		c-0.171-0.405-0.349-0.828-0.536-1.269c-0.094-0.22-0.19-0.444-0.289-0.673c-0.126-0.215-0.254-0.434-0.385-0.657
		c-0.271-0.439-0.51-0.92-0.833-1.367c-1.252-1.827-2.993-3.627-5.301-5.055c-2.282-1.414-5.07-2.442-8.069-2.655
		c-0.392-0.012-0.786-0.024-1.182-0.036l-0.597-0.019l-0.3-0.009c-0.004,0.009-0.167,0.018-0.243,0.026
		c-0.771,0.079-1.553,0.104-2.323,0.289c-1.558,0.247-3.072,0.82-4.538,1.492c-1.467,0.691-2.813,1.652-4.064,2.725
		c-1.234,1.1-2.312,2.385-3.23,3.782c-0.885,1.422-1.565,2.969-2.075,4.573c-0.204,0.818-0.43,1.64-0.51,2.436
		c-0.161,0.721-0.138,1.812-0.193,2.562c0.028,1.69,0.237,3.378,0.706,5c0.514,1.603,1.191,3.15,2.077,4.574
		c0.918,1.399,2.004,2.675,3.232,3.784c1.249,1.077,2.596,2.039,4.063,2.736c1.456,0.677,3.01,1.241,4.525,1.477
		c0.733,0.182,1.579,0.206,2.372,0.283l0.15,0.013l0.075,0.006l0.038,0.003c-0.14,0.002-0.017,0-0.039,0l0.3-0.008l0.597-0.016
		c0.396-0.01,0.791-0.02,1.182-0.03c1.452-0.122,2.95-0.435,4.303-0.881c1.37-0.447,2.62-1.084,3.77-1.777
		c2.302-1.409,4.039-3.259,5.279-5.077c1.264-1.817,1.993-3.631,2.418-5.163c0.379-1.539,0.611-2.775,0.625-3.631
		C63.914,52.119,63.945,51.665,63.945,51.665z"/>
</g>
<g>
	<path fill="#010202" d="M91.111,26.089c0,0-0.024,0.455-0.07,1.307c-0.002,0.855-0.216,2.095-0.576,3.65
		c-0.406,1.537-1.123,3.368-2.304,5.262c-0.569,0.963-1.326,1.887-2.158,2.828c-0.881,0.893-1.834,1.824-2.973,2.622
		c-2.259,1.63-5.066,2.875-8.327,3.362c-0.39,0.037-0.782,0.074-1.178,0.111l-0.594,0.056l-0.299,0.028
		c-0.046,0.001,0.052,0.002-0.113,0.003l-0.037-0.001l-0.075-0.001l-0.151-0.002c-0.809-0.024-1.596,0.015-2.479-0.125
		c-1.753-0.156-3.426-0.64-5.108-1.283c-1.673-0.661-3.249-1.62-4.737-2.74c-1.46-1.161-2.736-2.576-3.854-4.126
		c-1.092-1.573-1.932-3.333-2.529-5.182c-0.568-1.862-0.841-3.807-0.896-5.758c0.068-1.065,0.046-1.806,0.245-2.875
		c0.121-1.017,0.391-1.946,0.643-2.884c0.598-1.848,1.426-3.615,2.521-5.187c1.115-1.553,2.394-2.965,3.849-4.133
		c1.484-1.125,3.057-2.094,4.731-2.759c1.669-0.655,3.383-1.127,5.093-1.277c0.847-0.135,1.697-0.103,2.528-0.122l0.357-0.001
		l0.298,0.032l0.594,0.063c0.395,0.042,0.786,0.083,1.176,0.125c3.235,0.482,6.055,1.775,8.315,3.365
		c2.229,1.61,3.989,3.527,5.157,5.418c0.308,0.465,0.53,0.962,0.784,1.416c0.122,0.229,0.242,0.455,0.36,0.676
		c0.094,0.232,0.187,0.46,0.277,0.683c0.181,0.446,0.354,0.874,0.52,1.283c0.137,0.419,0.231,0.83,0.341,1.213
		c0.101,0.386,0.214,0.748,0.288,1.094c0.051,0.352,0.099,0.681,0.144,0.988c0.078,0.614,0.192,1.132,0.185,1.561
		C91.093,25.634,91.111,26.089,91.111,26.089z M91.111,26.089c0,0-0.024-0.455-0.071-1.307c0.002-0.429-0.12-0.943-0.207-1.555
		c-0.049-0.305-0.101-0.633-0.156-0.983c-0.079-0.345-0.196-0.704-0.302-1.086c-0.115-0.381-0.215-0.789-0.357-1.203
		c-0.17-0.404-0.349-0.828-0.535-1.269c-0.094-0.22-0.19-0.444-0.288-0.673c-0.126-0.215-0.255-0.434-0.386-0.656
		c-0.271-0.439-0.511-0.92-0.833-1.367c-1.252-1.827-2.993-3.627-5.301-5.055c-2.281-1.414-5.069-2.442-8.069-2.655
		c-0.392-0.012-0.785-0.024-1.182-0.036l-0.597-0.019l-0.3-0.009c-0.005,0.009-0.168,0.018-0.244,0.026
		c-0.771,0.079-1.553,0.104-2.322,0.289c-1.558,0.247-3.072,0.82-4.538,1.492c-1.468,0.691-2.814,1.652-4.064,2.725
		c-1.235,1.1-2.312,2.385-3.231,3.782c-0.885,1.422-1.565,2.968-2.075,4.573c-0.204,0.818-0.43,1.64-0.51,2.436
		c-0.161,0.721-0.138,1.812-0.193,2.562c0.028,1.69,0.237,3.378,0.706,5c0.514,1.603,1.191,3.15,2.077,4.574
		c0.918,1.399,2.004,2.675,3.232,3.784c1.249,1.077,2.596,2.039,4.063,2.736c1.456,0.677,3.01,1.241,4.525,1.477
		c0.733,0.182,1.579,0.206,2.372,0.283l0.15,0.013l0.074,0.006l0.038,0.003c-0.141,0.002-0.018,0-0.039,0l0.3-0.008l0.597-0.016
		c0.396-0.01,0.791-0.02,1.182-0.03c1.452-0.122,2.95-0.435,4.304-0.881c1.369-0.447,2.619-1.084,3.77-1.777
		c2.303-1.409,4.039-3.259,5.279-5.077c1.263-1.817,1.992-3.631,2.418-5.163c0.38-1.539,0.612-2.775,0.625-3.631
		C91.08,26.543,91.111,26.089,91.111,26.089z"/>
</g>
<g>
	<path fill="#010202" d="M120.065,51.665c0,0-0.02,0.455-0.057,1.308c0.001,0.428-0.07,0.95-0.167,1.562
		c-0.05,0.306-0.082,0.639-0.155,0.986c-0.086,0.345-0.178,0.711-0.274,1.098c-0.425,1.532-1.094,3.379-2.295,5.267
		c-1.186,1.89-2.888,3.814-5.133,5.453c-2.257,1.611-5.103,2.862-8.304,3.353c-0.397,0.078-0.806,0.081-1.214,0.125
		c-0.424,0.02-0.786,0.1-1.271,0.07c-0.401-0.012-0.806-0.024-1.212-0.037l-0.611-0.018l-0.153-0.005l-0.076-0.002l-0.149-0.017
		l-0.305-0.04c-0.412-0.059-0.81-0.09-1.238-0.174c-0.435-0.091-0.87-0.183-1.308-0.275c-0.422-0.123-0.846-0.247-1.271-0.371
		c-0.422-0.137-0.835-0.307-1.257-0.462c-3.33-1.335-6.419-3.711-8.583-6.873c-1.096-1.566-1.961-3.32-2.53-5.178l-0.209-0.698
		l-0.052-0.175c-0.012-0.049,0.008,0.049-0.03-0.122l-0.008-0.042l-0.017-0.083l-0.065-0.334l-0.262-1.339
		c-0.108-0.421-0.115-0.96-0.16-1.454l-0.101-1.51l0.075-1.433l0.02-0.341l0.005-0.085l0.02-0.182l0.007-0.042l0.027-0.168
		l0.11-0.673c0.077-0.451,0.139-0.892,0.229-1.351l0.41-1.452c0.236-0.997,0.696-1.829,1.05-2.736
		c0.197-0.44,0.472-0.842,0.704-1.262c0.253-0.408,0.457-0.846,0.764-1.216c0.577-0.763,1.114-1.551,1.797-2.211
		c0.329-0.339,0.637-0.697,0.982-1.013l1.076-0.902l0.539-0.441l0.582-0.38l1.158-0.75l0.205-0.126l0.146-0.071l0.293-0.141
		l0.582-0.281l1.158-0.559c0.857-0.31,1.735-0.586,2.587-0.858c0.863-0.153,1.718-0.305,2.564-0.456
		c0.854-0.059,1.702-0.068,2.532-0.101c0.49-0.029,0.823,0.053,1.238,0.073c0.398,0.044,0.78,0.048,1.186,0.125
		c3.252,0.512,6.054,1.755,8.33,3.354c2.253,1.627,3.952,3.558,5.14,5.445c1.203,1.887,1.87,3.736,2.297,5.267
		c0.097,0.387,0.188,0.753,0.274,1.099c0.074,0.347,0.105,0.68,0.155,0.985c0.097,0.612,0.169,1.134,0.168,1.562
		C120.046,51.21,120.065,51.665,120.065,51.665z M120.065,51.665c0,0-0.026-0.455-0.075-1.307c-0.005-0.428-0.084-0.948-0.189-1.558
		c-0.054-0.304-0.09-0.636-0.169-0.98c-0.09-0.343-0.187-0.707-0.288-1.091c-0.443-1.519-1.129-3.358-2.414-5.164
		c-1.253-1.808-2.984-3.662-5.28-5.08c-2.272-1.418-5.113-2.415-8.085-2.646c-0.368-0.044-0.779-0.021-1.171-0.035
		c-0.376,0.01-0.841-0.044-1.152,0.018c-0.77,0.092-1.549,0.158-2.326,0.268c-0.761,0.195-1.529,0.392-2.305,0.591
		c-0.721,0.292-1.448,0.587-2.183,0.885l-1.12,0.631l-0.564,0.318l-0.282,0.159l-0.142,0.08c0.109-0.061,0.013-0.004,0.029-0.011
		l-0.031,0.023l-0.062,0.046l-0.988,0.735l-0.495,0.367l-0.452,0.424l-0.912,0.84c-0.294,0.291-0.55,0.623-0.827,0.931
		c-0.581,0.6-1.016,1.318-1.496,2.002c-0.258,0.331-0.415,0.726-0.621,1.09c-0.188,0.375-0.409,0.733-0.574,1.118
		c-0.283,0.78-0.701,1.556-0.86,2.339L84.7,47.827c-0.08,0.432-0.138,0.894-0.208,1.34l-0.101,0.675l-0.025,0.169l-0.006,0.042
		c-0.006,0.044,0.023-0.237,0.01-0.098l-0.003,0.085l-0.015,0.341l-0.059,1.295l0.065,1.217c0.03,0.413,0.001,0.792,0.111,1.258
		l0.243,1.342l0.061,0.335l0.016,0.084l0.007,0.042c-0.031-0.142-0.002-0.018-0.007-0.04l0.044,0.152l0.174,0.608
		c0.486,1.613,1.188,3.156,2.079,4.572c1.803,2.819,4.375,5.101,7.286,6.528c2.874,1.446,6.245,1.946,9.173,1.727
		c3.023-0.254,5.818-1.247,8.108-2.655c2.301-1.411,4.028-3.272,5.28-5.08c1.284-1.807,1.968-3.647,2.41-5.166
		c0.102-0.385,0.198-0.749,0.289-1.091c0.078-0.345,0.114-0.676,0.168-0.98c0.104-0.609,0.184-1.129,0.188-1.558
		C120.039,52.119,120.065,51.665,120.065,51.665z"/>
</g>
<g>
	<path fill="#010202" d="M71.205,87.235c0.039,5.624,0.019,11.248,0.105,16.872l0.11,8.437l0.091,4.218l0.045,2.108
		c0.015,0.747-0.053,1.417-0.075,2.13l-0.01,0.337l-0.351,0.034l-6.402,0.62l-3.203,0.31l-3.214,0.195l-6.436,0.375
		c-1.114,0.049-2.153,0.018-3.233,0.03l-3.211,0.007l-6.422,0.013c-2.141,0.02-4.282-0.009-6.421-0.058
		c-4.28-0.079-8.56-0.152-12.838-0.284l-1.151-0.035l-0.132-1.084c-0.289-2.381-0.174-4.367-0.212-6.495l0.011-6.309
		c0.025-4.205,0.018-8.41,0.089-12.616l0.082-6.308c0.021-2.051-0.011-4.328,0.709-6.547c0.658-2.174,1.894-4.137,3.452-5.744
		c1.555-1.619,3.52-2.812,5.624-3.521c1.048-0.374,2.149-0.562,3.247-0.687c0.549-0.029,1.111-0.045,1.648-0.05l1.577,0.034
		l6.308,0.137l12.616,0.272l3.154,0.044c0.519,0.01,1.062,0.002,1.584,0.047l0.787,0.05c0.263,0.031,0.527,0.084,0.791,0.125
		c2.101,0.348,4.099,1.2,5.784,2.476c1.691,1.256,3.125,2.884,4.053,4.779C70.704,83.031,71.204,85.132,71.205,87.235z
		 M71.205,87.235c-0.02-2.104-0.538-4.194-1.495-6.062c-0.94-1.879-2.38-3.483-4.068-4.714c-1.692-1.235-3.701-2.014-5.754-2.303
		c-0.257-0.033-0.511-0.077-0.77-0.102l-0.788-0.03c-0.527-0.031-1.036-0.009-1.569-0.006l-3.154,0.044l-12.616,0.272l-6.308,0.137
		l-1.577,0.034c-0.512,0.028-1.002,0.063-1.5,0.11c-0.984,0.158-1.961,0.365-2.881,0.741c-1.846,0.713-3.532,1.841-4.829,3.318
		c-1.299,1.465-2.293,3.207-2.772,5.09c-0.098,0.471-0.249,0.949-0.281,1.404l-0.092,0.686c-0.021,0.243-0.019,0.521-0.03,0.778
		c-0.004,0.237-0.023,0.582-0.015,0.732l0.017,0.788l0.021,1.577l0.082,6.308c0.071,4.206,0.064,8.411,0.089,12.616l0.011,6.309
		c0.009,2.075-0.089,4.303,0.128,6.106l-1.283-1.119c4.279,0.14,8.558,0.338,12.836,0.53l12.838,0.527l3.209,0.131
		c1.06,0.033,2.162,0.11,3.187,0.108l6.399-0.098l3.203-0.057l3.201-0.172l6.406-0.343l-0.361,0.371
		c0.052-0.691,0.151-1.421,0.165-2.081l0.045-2.108l0.091-4.218l0.11-8.437C71.186,98.483,71.166,92.859,71.205,87.235z"/>
</g>
<g>
	<path fill="#010202" d="M127.315,87.235c0.039,5.624,0.019,11.248,0.105,16.872l0.11,8.437l0.091,4.218l0.045,2.108
		c0.015,0.747-0.053,1.417-0.075,2.13l-0.011,0.337l-0.351,0.034l-6.402,0.62l-3.203,0.31l-3.214,0.195l-6.437,0.375
		c-1.113,0.049-2.152,0.018-3.232,0.03l-3.211,0.007l-6.423,0.013c-2.142,0.02-4.281-0.009-6.421-0.058
		c-4.279-0.079-8.56-0.152-12.838-0.284l-1.151-0.035l-0.132-1.085c-0.29-2.38-0.174-4.366-0.212-6.494l0.011-6.309
		c0.024-4.205,0.019-8.411,0.089-12.616l0.082-6.309c0.021-2.051-0.011-4.328,0.71-6.547c0.658-2.173,1.895-4.137,3.452-5.744
		c1.556-1.619,3.52-2.812,5.624-3.521c1.049-0.374,2.15-0.562,3.247-0.686c0.549-0.029,1.111-0.045,1.648-0.05l1.577,0.034
		l6.309,0.137l12.616,0.272l3.154,0.044c0.518,0.01,1.062,0.002,1.584,0.047l0.787,0.05c0.263,0.032,0.527,0.084,0.79,0.125
		c2.101,0.348,4.1,1.199,5.785,2.475c1.691,1.256,3.125,2.884,4.052,4.78C126.815,83.031,127.314,85.132,127.315,87.235z
		 M127.315,87.235c-0.02-2.104-0.537-4.195-1.493-6.062c-0.939-1.88-2.379-3.485-4.067-4.716c-1.692-1.234-3.702-2.012-5.755-2.301
		c-0.257-0.033-0.511-0.077-0.77-0.102l-0.788-0.03c-0.527-0.031-1.036-0.01-1.568-0.006l-3.154,0.044l-12.616,0.272l-6.309,0.137
		l-1.577,0.034c-0.513,0.028-1.002,0.063-1.5,0.11c-0.984,0.158-1.962,0.365-2.881,0.741c-1.846,0.713-3.533,1.84-4.829,3.317
		c-1.299,1.466-2.294,3.208-2.772,5.09c-0.099,0.471-0.249,0.95-0.281,1.404l-0.093,0.686c-0.021,0.243-0.019,0.521-0.029,0.778
		c-0.004,0.238-0.023,0.582-0.015,0.732l0.017,0.788l0.021,1.577l0.082,6.309c0.07,4.205,0.064,8.411,0.089,12.616l0.011,6.309
		c0.01,2.075-0.089,4.303,0.128,6.107l-1.282-1.12c4.279,0.14,8.558,0.338,12.836,0.53l12.838,0.527l3.209,0.131
		c1.061,0.033,2.162,0.11,3.188,0.108l6.399-0.098l3.202-0.057l3.201-0.172l6.405-0.343l-0.361,0.371
		c0.052-0.691,0.151-1.422,0.165-2.081l0.045-2.108l0.091-4.218l0.11-8.437C127.297,98.483,127.276,92.859,127.315,87.235z"/>
</g>
<g>
	<path fill="#010202" d="M63.945,47.833c0,0,0.27-0.044,0.741-0.097c0.472-0.043,1.146-0.133,1.955-0.189
		c1.618-0.127,3.774-0.21,5.931-0.214c2.156,0.003,4.313,0.085,5.931,0.212c0.81,0.056,1.483,0.147,1.955,0.19
		c0.472,0.053,0.741,0.097,0.741,0.097s-0.27,0.044-0.741,0.097c-0.472,0.043-1.146,0.134-1.955,0.19
		c-1.617,0.127-3.774,0.209-5.931,0.212c-2.157-0.003-4.313-0.087-5.931-0.214c-0.809-0.056-1.482-0.146-1.955-0.189
		C64.215,47.877,63.945,47.833,63.945,47.833z"/>
</g>
<g>
	<path fill="#010202" d="M46.746,71.115c0,0,0.064,0.125,0.112,0.312c0.054,0.188,0.074,0.438,0.087,0.688
		c-0.014,0.25-0.032,0.5-0.087,0.688c-0.048,0.188-0.113,0.312-0.113,0.312s-0.064-0.125-0.113-0.312
		c-0.055-0.188-0.073-0.438-0.087-0.688c0.014-0.25,0.033-0.5,0.087-0.688C46.682,71.24,46.746,71.115,46.746,71.115z"/>
</g>
<g>
	<path fill="#010202" d="M98.365,70.865c0,0,0.107,0.5,0.1,1c0.009,0.5-0.1,1-0.1,1s-0.108-0.5-0.1-1
		C98.258,71.365,98.365,70.865,98.365,70.865z"/>
</g>
</svg>
