<?xml version="1.0" encoding="utf-8"?>
<!-- Generator: Adobe Illustrator 16.0.0, SVG Export Plug-In . SVG Version: 6.00 Build 0)  -->
<!DOCTYPE svg PUBLIC "-//W3C//DTD SVG 1.1//EN" "http://www.w3.org/Graphics/SVG/1.1/DTD/svg11.dtd">
<svg version="1.1" id="Calque_1" xmlns="http://www.w3.org/2000/svg" xmlns:xlink="http://www.w3.org/1999/xlink" x="0px" y="0px"
	 width="141.73px" height="141.73px" viewBox="0 0 141.73 141.73" enable-background="new 0 0 141.73 141.73" xml:space="preserve">
<g>
	<path d="M130.333,70.865c0,0-0.008,0.365-0.024,1.072c-0.029,0.707-0.001,1.757-0.127,3.121c-0.163,2.729-0.614,6.743-1.946,11.685
		c-0.623,2.481-1.573,5.158-2.761,8.004c-1.2,2.842-2.712,5.834-4.631,8.852c-3.811,6.041-9.29,12.186-16.523,17.338
		c-7.24,5.095-16.331,9.078-26.547,10.534c-1.272,0.2-2.566,0.296-3.866,0.438c-1.312,0.053-2.599,0.188-3.962,0.171
		c-0.644,0.003-1.29,0.006-1.938,0.009c-0.654-0.004-1.348-0.054-2.024-0.079c-1.375-0.036-2.708-0.2-4.066-0.326
		c-2.7-0.343-5.431-0.792-8.128-1.516c-1.363-0.312-2.692-0.766-4.045-1.17c-1.324-0.483-2.679-0.922-3.981-1.503
		c-5.275-2.174-10.332-5.16-14.955-8.837c-4.609-3.699-8.71-8.152-12.154-13.134c-1.728-2.489-3.239-5.14-4.609-7.872
		c-1.346-2.746-2.435-5.624-3.375-8.552c-0.933-2.934-1.584-5.956-2.065-9.004c-0.204-1.53-0.415-3.061-0.506-4.603
		c-0.062-0.77-0.128-1.54-0.135-2.312L7.9,70.776c0.05-1.483,0.035-2.848,0.191-4.488c0.094-1.603,0.306-3.125,0.509-4.652
		c0.487-3.047,1.125-6.073,2.06-9.007c0.94-2.928,2.032-5.805,3.374-8.554c1.36-2.737,2.88-5.385,4.606-7.875
		c3.443-4.985,7.552-9.431,12.153-13.142c4.625-3.678,9.685-6.665,14.961-8.838c1.302-0.583,2.659-1.016,3.981-1.506
		c1.354-0.405,2.684-0.857,4.047-1.17c2.698-0.723,5.43-1.171,8.131-1.514c1.357-0.127,2.701-0.291,4.047-0.324
		c1.342-0.087,2.678-0.088,4.003-0.072l1.034,0.01l0.959,0.053c0.639,0.036,1.276,0.071,1.911,0.107
		c1.307,0.14,2.637,0.239,3.906,0.44c10.219,1.458,19.309,5.448,26.551,10.543c7.233,5.154,12.709,11.304,16.521,17.344
		c1.918,3.018,3.432,6.01,4.629,8.853c1.188,2.846,2.138,5.523,2.761,8.004c1.331,4.941,1.782,8.956,1.945,11.684
		c0.126,1.364,0.098,2.415,0.127,3.121C130.325,70.5,130.333,70.865,130.333,70.865z M130.333,70.865c0,0-0.011-0.365-0.03-1.071
		c-0.034-0.706-0.011-1.757-0.146-3.12c-0.191-2.722-0.625-6.743-2.039-11.653c-1.397-4.893-3.725-10.73-7.75-16.576
		c-3.98-5.833-9.543-11.786-16.888-16.396c-3.659-2.303-7.717-4.294-12.092-5.822c-4.379-1.517-9.094-2.477-13.962-2.896
		c-1.219-0.118-2.416-0.129-3.643-0.191c-0.636,0.003-1.273,0.007-1.914,0.01l-0.961,0.005l-0.893,0.049
		c-1.249,0.061-2.501,0.137-3.754,0.297c-1.257,0.106-2.506,0.34-3.763,0.533c-5.008,0.906-9.99,2.479-14.719,4.746
		c-4.741,2.241-9.213,5.207-13.231,8.751c-2.018,1.764-3.907,3.689-5.689,5.718c-1.776,2.038-3.375,4.236-4.86,6.512
		c-2.912,4.592-5.217,9.6-6.769,14.854c-0.775,2.627-1.329,5.319-1.75,8.031c-0.171,1.364-0.354,2.734-0.422,4.048
		c-0.134,1.267-0.11,2.826-0.163,4.259l0.048,1.974c0,0.688,0.056,1.373,0.109,2.059c0.07,1.373,0.255,2.734,0.425,4.098
		c0.427,2.711,0.967,5.405,1.745,8.033c1.558,5.252,3.848,10.269,6.764,14.859c1.486,2.276,3.085,4.476,4.862,6.514
		c1.781,2.031,3.677,3.949,5.687,5.725c4.021,3.545,8.495,6.512,13.238,8.753c4.728,2.273,9.714,3.841,14.724,4.748
		c1.256,0.192,2.515,0.427,3.744,0.53c0.623,0.062,1.222,0.146,1.861,0.19c0.646,0.036,1.292,0.071,1.935,0.107
		c1.21,0.094,2.481,0.037,3.711,0.064c1.232-0.061,2.467-0.075,3.683-0.192c4.869-0.421,9.586-1.38,13.965-2.901
		c4.375-1.53,8.433-3.521,12.093-5.826c7.345-4.611,12.903-10.569,16.885-16.401c4.025-5.847,6.349-11.685,7.748-16.577
		c1.412-4.91,1.848-8.932,2.038-11.653c0.135-1.362,0.111-2.414,0.146-3.12C130.322,71.23,130.333,70.865,130.333,70.865z"/>
</g>
<g>
	<path d="M66.492,125.432c3.586-4.479,7.264-8.871,10.938-13.268c3.725-4.349,7.391-8.752,11.168-13.051
		c3.766-4.311,7.485-8.663,11.308-12.92c3.808-4.271,7.589-8.565,11.417-12.816l0.075,4.186c-4.033-3.825-8.056-7.66-12.055-11.521
		L87.372,54.437L75.492,42.74c-3.935-3.924-7.891-7.827-11.797-11.78l5.819-2.442l-0.08,12.113l-0.149,12.114
		c-0.097,8.075-0.352,16.152-0.529,24.228c-0.089,4.037-0.269,8.076-0.399,12.114c-0.133,4.038-0.283,8.076-0.484,12.114
		l-0.277,6.058c-0.085,2.02-0.219,4.039-0.327,6.058c-0.12,2.02-0.213,4.039-0.356,6.058L66.492,125.432z M66.492,125.432
		l-0.469-6.055c-0.16-2.018-0.269-4.036-0.405-6.055c-0.124-2.019-0.275-4.036-0.376-6.055l-0.327-6.055
		c-0.234-4.037-0.416-8.074-0.582-12.111c-0.163-4.036-0.375-8.073-0.498-12.11c-0.244-8.074-0.564-16.148-0.727-24.223
		L62.86,40.657l-0.179-12.112l-0.121-8.188l5.94,5.745c3.995,3.864,7.94,7.777,11.906,11.67l11.825,11.753l11.734,11.844
		c3.903,3.957,7.781,7.938,11.649,11.93l2.079,2.146l-2.003,2.04c-4.008,4.083-8.062,8.121-12.091,12.184
		c-4.014,4.077-8.129,8.059-12.199,12.081c-4.059,4.035-8.229,7.965-12.339,11.95C74.9,117.636,70.742,121.577,66.492,125.432z"/>
</g>
</svg>
