<?xml version="1.0" encoding="utf-8"?>
<!-- Generator: Adobe Illustrator 16.0.0, SVG Export Plug-In . SVG Version: 6.00 Build 0)  -->
<!DOCTYPE svg PUBLIC "-//W3C//DTD SVG 1.1//EN" "http://www.w3.org/Graphics/SVG/1.1/DTD/svg11.dtd">
<svg version="1.1" id="Calque_1" xmlns="http://www.w3.org/2000/svg" xmlns:xlink="http://www.w3.org/1999/xlink" x="0px" y="0px"
	 width="141.73px" height="141.73px" viewBox="0 0 141.73 141.73" enable-background="new 0 0 141.73 141.73" xml:space="preserve">
<g>
	<path fill="#010202" d="M20.282,37.09l6.555,3.253l6.516,3.322l6.487,3.371l6.46,3.419l6.452,3.432l6.416,3.495l6.416,3.495
		l6.385,3.548l-2.405,0.13l10.587-7.989l10.661-7.887l5.33-3.943l5.365-3.896l10.74-7.78l1.42,4.344
		c-3.098,0-6.194-0.081-9.292-0.117l-9.291-0.14c-3.098-0.032-6.195-0.139-9.292-0.208L76.5,36.708
		c-6.194-0.228-12.389-0.394-18.583-0.695c-3.097-0.13-6.195-0.274-9.292-0.45c-3.097-0.15-6.194-0.366-9.292-0.563
		c3.097-0.197,6.194-0.413,9.292-0.563c3.097-0.176,6.195-0.319,9.292-0.45c6.194-0.301,12.389-0.467,18.583-0.695l9.292-0.232
		c3.097-0.069,6.194-0.176,9.292-0.208l9.291-0.14c3.098-0.036,6.194-0.116,9.292-0.117l7.293-0.001l-5.873,4.345l-10.661,7.887
		l-5.335,3.937l-5.37,3.89l-10.739,7.78l-10.814,7.678l-1.201,0.853l-1.204-0.723l-6.261-3.763l-6.23-3.816l-6.23-3.816
		l-6.194-3.879l-6.186-3.892l-6.159-3.939l-6.13-3.989L20.282,37.09z"/>
</g>
<g>
	<path fill="#010202" d="M16.667,46.667c0.258,3.611,0.491,7.222,0.681,10.833c0.208,3.611,0.349,7.222,0.526,10.833l0.408,10.834
		c0.148,3.61,0.206,7.222,0.313,10.833l-1.928-1.928c4.181-0.12,8.361-0.222,12.542-0.272l12.542-0.195l12.542-0.066
		c4.181-0.028,8.361-0.049,12.542-0.01l12.542,0.067c4.181,0.021,8.361,0.122,12.542,0.179c4.18,0.062,8.36,0.13,12.541,0.258
		c4.181,0.125,8.361,0.193,12.542,0.364L115.396,90l0.296-8c0.094-2.667,0.242-5.333,0.361-8c0.115-2.667,0.269-5.333,0.423-8
		c0.138-2.667,0.347-5.333,0.523-8c0.177,2.667,0.386,5.333,0.523,8c0.154,2.667,0.308,5.333,0.423,8
		c0.119,2.667,0.268,5.333,0.361,8l0.296,8l0.058,1.536L117,91.604c-4.181,0.171-8.361,0.239-12.542,0.364
		c-4.181,0.128-8.361,0.196-12.541,0.258c-4.181,0.057-8.361,0.158-12.542,0.179l-12.542,0.067c-4.18,0.039-8.361,0.019-12.542-0.01
		L41.75,92.396L29.208,92.2c-4.181-0.051-8.361-0.152-12.542-0.272l-1.983-0.057L14.739,90c0.107-3.611,0.165-7.223,0.313-10.833
		l0.408-10.834c0.177-3.611,0.319-7.222,0.526-10.833C16.175,53.889,16.409,50.278,16.667,46.667z"/>
</g>
</svg>
