<?xml version="1.0" encoding="utf-8"?>
<!-- Generator: Adobe Illustrator 16.0.0, SVG Export Plug-In . SVG Version: 6.00 Build 0)  -->
<!DOCTYPE svg PUBLIC "-//W3C//DTD SVG 1.1//EN" "http://www.w3.org/Graphics/SVG/1.1/DTD/svg11.dtd">
<svg version="1.1" id="Calque_1" xmlns="http://www.w3.org/2000/svg" xmlns:xlink="http://www.w3.org/1999/xlink" x="0px" y="0px"
	 width="141.73px" height="141.73px" viewBox="0 0 141.73 141.73" enable-background="new 0 0 141.73 141.73" xml:space="preserve">
<g>
	<path d="M43.674,121.784c0,0-0.016,0.372-0.045,1.069c0.001,0.351-0.057,0.777-0.135,1.278c-0.05,0.507-0.185,1.072-0.34,1.708
		c-0.327,1.26-0.849,2.784-1.808,4.357c-0.95,1.571-2.288,3.218-4.118,4.648c-1.84,1.4-4.184,2.547-6.886,3.101
		c-0.336,0.079-0.682,0.101-1.028,0.152c-0.368,0.034-0.654,0.114-1.1,0.11c-0.67,0.012-1.284,0.08-2.086-0.007
		c-1.558-0.081-3-0.412-4.491-0.935c-1.474-0.531-2.877-1.325-4.211-2.271c-1.307-0.983-2.479-2.188-3.482-3.547
		c-0.986-1.375-1.754-2.923-2.304-4.558c-0.542-1.644-0.758-3.379-0.812-5.107l0.066-1.241c0.005-0.336,0.075-0.812,0.148-1.274
		c0.114-0.948,0.351-1.766,0.592-2.594c0.553-1.634,1.313-3.187,2.302-4.561c0.999-1.365,2.179-2.563,3.48-3.555
		c1.336-0.946,2.74-1.74,4.216-2.271c2.925-1.075,6.069-1.188,8.662-0.682c0.692,0.169,1.397,0.28,2.009,0.523
		c0.312,0.108,0.622,0.215,0.929,0.321c0.295,0.134,0.588,0.268,0.879,0.399c1.166,0.505,2.189,1.184,3.122,1.866
		c1.83,1.433,3.167,3.081,4.116,4.652c0.958,1.574,1.479,3.1,1.807,4.359c0.155,0.636,0.288,1.201,0.339,1.708
		c0.079,0.501,0.137,0.928,0.135,1.278C43.659,121.412,43.674,121.784,43.674,121.784z M43.674,121.784c0,0-0.022-0.372-0.062-1.068
		c-0.004-0.35-0.069-0.775-0.156-1.273c-0.061-0.503-0.193-1.069-0.386-1.69c-0.382-1.235-0.967-2.727-2.041-4.174
		c-1.045-1.451-2.513-2.898-4.401-3.959c-0.956-0.506-1.967-0.987-3.075-1.287c-1.089-0.341-2.295-0.457-3.41-0.512
		c-2.484-0.062-4.882,0.542-7.067,1.726c-2.175,1.186-4,3.006-5.292,5.129c-0.629,1.075-1.106,2.23-1.46,3.42
		c-0.129,0.609-0.303,1.223-0.353,1.759c-0.043,0.272-0.099,0.53-0.101,0.941l-0.024,0.558l-0.012,0.279l-0.006,0.14l-0.004,0.069
		l-0.002,0.035c0.001-0.045-0.004,0.149,0.001-0.092c0.016,1.25,0.185,2.486,0.494,3.691c0.357,1.188,0.827,2.348,1.458,3.424
		c1.289,2.128,3.115,3.952,5.294,5.135c1.076,0.559,2.272,1.085,3.388,1.324c0.52,0.176,1.242,0.233,1.881,0.328
		c0.51,0.057,1.179,0.075,1.754,0.078c2.387-0.055,4.658-0.74,6.537-1.81c1.889-1.062,3.355-2.512,4.399-3.964
		c1.074-1.448,1.657-2.939,2.04-4.174c0.192-0.622,0.324-1.188,0.385-1.69c0.086-0.498,0.151-0.924,0.156-1.274
		C43.652,122.156,43.674,121.784,43.674,121.784z"/>
</g>
<g>
	<path d="M107.341,115.269c0,0-0.018,0.402-0.05,1.156c0.001,0.379-0.062,0.84-0.147,1.382c-0.043,0.271-0.071,0.565-0.137,0.872
		c-0.072,0.306-0.15,0.631-0.232,0.975c-0.355,1.361-0.923,3.009-1.965,4.705c-1.03,1.693-2.482,3.466-4.464,4.997
		c-1.992,1.501-4.523,2.723-7.433,3.3c-0.362,0.084-0.734,0.104-1.107,0.158c-0.394,0.035-0.706,0.118-1.179,0.112
		c-0.724,0.009-1.392,0.078-2.248-0.021c-1.666-0.095-3.216-0.46-4.811-1.026c-1.579-0.576-3.079-1.434-4.504-2.453
		c-1.396-1.059-2.646-2.354-3.718-3.811c-1.053-1.475-1.87-3.132-2.457-4.882c-0.256-0.887-0.517-1.777-0.625-2.7
		c-0.074-0.457-0.152-0.914-0.163-1.378l-0.04-0.693l-0.019-0.347l-0.009-0.174l-0.005-0.087l-0.002-0.043
		c0-0.071-0.005,0.097,0.001-0.17c0.061-0.837,0.037-1.512,0.226-2.57c0.121-1.008,0.374-1.884,0.63-2.771
		c0.59-1.749,1.4-3.411,2.455-4.886c1.065-1.462,2.324-2.751,3.716-3.816c1.427-1.02,2.929-1.878,4.509-2.454
		c3.133-1.167,6.502-1.31,9.302-0.78c0.743,0.179,1.5,0.294,2.16,0.552c0.337,0.114,0.671,0.228,1.002,0.34
		c0.318,0.143,0.635,0.284,0.948,0.425c1.259,0.538,2.364,1.264,3.374,1.995c1.981,1.533,3.432,3.308,4.462,5.002
		c1.042,1.697,1.607,3.345,1.964,4.706c0.082,0.344,0.159,0.668,0.232,0.975c0.064,0.307,0.093,0.602,0.137,0.871
		c0.085,0.542,0.147,1.003,0.146,1.383C107.323,114.866,107.341,115.269,107.341,115.269z M107.341,115.269
		c0,0-0.023-0.402-0.067-1.155c-0.004-0.379-0.074-0.839-0.167-1.378c-0.048-0.269-0.08-0.562-0.149-0.866
		c-0.083-0.303-0.172-0.623-0.266-0.962c-0.411-1.337-1.041-2.95-2.197-4.521c-1.127-1.574-2.709-3.147-4.748-4.31
		c-1.032-0.554-2.127-1.083-3.327-1.415c-0.299-0.081-0.6-0.162-0.903-0.244c-0.311-0.053-0.622-0.105-0.937-0.159
		c-0.629-0.14-1.245-0.118-1.863-0.18c-2.691-0.085-5.314,0.547-7.707,1.823c-2.383,1.277-4.395,3.253-5.819,5.574
		c-0.695,1.175-1.223,2.44-1.613,3.744c-0.146,0.668-0.335,1.34-0.392,1.936c-0.129,0.524-0.115,1.47-0.166,2.238
		c0.007-0.242,0.003-0.049,0.005-0.095l0.002,0.032l0.003,0.064l0.007,0.128l0.012,0.256l0.021,0.513
		c-0.003,0.345,0.056,0.681,0.105,1.019c0.069,0.682,0.251,1.339,0.396,2.006c0.394,1.304,0.913,2.573,1.611,3.748
		c0.727,1.152,1.563,2.24,2.545,3.188c0.995,0.924,2.079,1.769,3.277,2.393c1.18,0.603,2.484,1.163,3.709,1.416
		c0.573,0.186,1.35,0.243,2.043,0.341c0.562,0.057,1.284,0.073,1.912,0.07c2.594-0.079,5.053-0.839,7.082-2.008
		c2.04-1.164,3.621-2.739,4.747-4.314c1.156-1.57,1.784-3.185,2.196-4.521c0.093-0.339,0.182-0.659,0.265-0.961
		c0.069-0.306,0.102-0.599,0.149-0.867c0.093-0.539,0.163-0.999,0.167-1.378C107.317,115.671,107.341,115.269,107.341,115.269z"/>
</g>
<g>
	<path d="M39.333,105.324c-0.3-6.277-0.546-12.554-0.769-18.831c-0.191-6.277-0.411-12.554-0.562-18.831l-0.228-9.416l-0.206-9.416
		L37.241,30l-0.029-1.667l1.704-0.384l7.925-1.786c2.644-0.587,5.282-1.201,7.93-1.765l15.898-3.343l15.938-3.142l7.989-1.47
		c2.666-0.479,5.322-1.004,7.996-1.443l2.487-0.409L105.041,17l-0.315,19.833l-0.431,19.833L103.741,76.5l-0.337,9.916L103,96.333
		l-0.404-9.917l-0.337-9.916l-0.554-19.833l-0.431-19.833L100.959,17l2.449,2c-2.632,0.644-5.281,1.203-7.921,1.807l-7.927,1.78
		l-15.895,3.358L55.73,29.102c-2.658,0.519-5.325,0.988-7.987,1.485l-7.991,1.464L41.426,30l-0.328,18.831l-0.206,9.416
		l-0.228,9.416c-0.151,6.277-0.371,12.554-0.562,18.831C39.879,92.771,39.633,99.047,39.333,105.324z"/>
</g>
<g>
	<path d="M111.333,12.333c0.752-0.225,1.505-0.43,2.26-0.61c0.754-0.193,1.509-0.365,2.266-0.521
		c1.511-0.348,3.028-0.595,4.544-0.883c3.033-0.519,6.076-0.917,9.125-1.235l4.509-0.471l-2.902,3.629
		c-1.478,1.848-2.983,3.672-4.536,5.457c-1.551,1.787-3.133,3.546-4.77,5.259c-1.634,1.716-3.307,3.399-5.053,5.02
		c-0.852,0.829-1.762,1.607-2.649,2.406c-0.911,0.778-1.825,1.554-2.793,2.284c0.56-1.076,1.174-2.105,1.791-3.132
		c0.64-1.007,1.258-2.034,1.934-3.011c1.31-1.991,2.692-3.919,4.114-5.814c1.419-1.898,2.893-3.75,4.397-5.574
		c1.503-1.826,3.053-3.613,4.631-5.376l1.606,3.158c-3.063,0.126-6.132,0.173-9.209,0.098c-1.54-0.066-3.078-0.091-4.623-0.216
		c-0.771-0.045-1.544-0.106-2.317-0.188C112.884,12.541,112.109,12.447,111.333,12.333z"/>
</g>
</svg>
