<?xml version="1.0" encoding="utf-8"?>
<!-- Generator: Adobe Illustrator 16.0.0, SVG Export Plug-In . SVG Version: 6.00 Build 0)  -->
<!DOCTYPE svg PUBLIC "-//W3C//DTD SVG 1.1//EN" "http://www.w3.org/Graphics/SVG/1.1/DTD/svg11.dtd">
<svg version="1.1" id="Calque_1" xmlns="http://www.w3.org/2000/svg" xmlns:xlink="http://www.w3.org/1999/xlink" x="0px" y="0px"
	 width="141.73px" height="141.73px" viewBox="0 0 141.73 141.73" enable-background="new 0 0 141.73 141.73" xml:space="preserve">
<g>
	<path d="M84.685,36.516c-0.173-1.02-0.306-2.039-0.431-3.058c-0.13-1.02-0.22-2.039-0.332-3.058
		c-0.197-2.039-0.343-4.077-0.462-6.116c-0.118-2.039-0.199-4.078-0.256-6.116c-0.056-2.04-0.077-4.078-0.083-6.117l1.563,1.563
		c-2.047-0.003-4.092-0.025-6.138-0.079c-2.046-0.059-4.091-0.133-6.137-0.254c-2.047-0.119-4.092-0.265-6.138-0.461
		c-1.022-0.113-2.046-0.206-3.068-0.335c-1.022-0.126-2.046-0.26-3.069-0.434c1.022-0.175,2.046-0.308,3.069-0.435
		c1.022-0.129,2.045-0.222,3.068-0.335c2.046-0.197,4.092-0.344,6.137-0.462c2.046-0.121,4.092-0.195,6.138-0.253
		c2.046-0.054,4.091-0.076,6.138-0.078l1.568-0.002l-0.005,1.566c-0.007,2.039-0.026,4.077-0.083,6.116
		c-0.057,2.04-0.138,4.078-0.256,6.116c-0.12,2.039-0.265,4.077-0.461,6.117c-0.112,1.019-0.203,2.039-0.332,3.058
		C84.99,34.478,84.857,35.496,84.685,36.516z"/>
</g>
<g>
	<polygon points="38.761,54.742 77.344,19.35 41.952,57.932 	"/>
</g>
<g>
	<path d="M86.118,86.77c0.6-0.843,1.227-1.657,1.859-2.467c0.627-0.813,1.285-1.598,1.928-2.397c1.301-1.58,2.639-3.125,3.996-4.651
		c1.359-1.524,2.742-3.024,4.145-4.505c1.402-1.481,2.828-2.938,4.266-4.384v2.211c-1.445-1.449-2.875-2.911-4.283-4.396
		c-1.406-1.488-2.801-2.987-4.16-4.519c-1.363-1.531-2.707-3.081-4.016-4.667c-0.641-0.802-1.299-1.591-1.932-2.407
		c-0.633-0.812-1.262-1.63-1.863-2.477c0.846,0.599,1.664,1.228,2.479,1.862c0.814,0.632,1.602,1.289,2.406,1.933
		c1.586,1.308,3.137,2.65,4.666,4.012c1.533,1.362,3.031,2.756,4.52,4.162c1.484,1.408,2.945,2.838,4.395,4.284l1.111,1.106
		l-1.111,1.105c-1.445,1.436-2.902,2.863-4.383,4.265c-1.482,1.402-2.98,2.786-4.506,4.145c-1.527,1.357-3.068,2.695-4.65,3.999
		c-0.801,0.641-1.586,1.297-2.398,1.927C87.774,85.544,86.96,86.171,86.118,86.77z"/>
</g>
<g>
	<polygon points="40.757,67.184 93.065,69.441 40.757,71.697 	"/>
</g>
<g>
	<path d="M60.026,126.247c1.02-0.172,2.039-0.305,3.059-0.43c1.018-0.132,2.038-0.221,3.058-0.332
		c2.037-0.198,4.075-0.344,6.114-0.464c2.04-0.116,4.078-0.199,6.116-0.255c2.039-0.056,4.077-0.077,6.116-0.083l-1.563,1.563
		c0.003-2.047,0.025-4.092,0.08-6.137c0.058-2.047,0.132-4.093,0.253-6.137c0.119-2.047,0.265-4.093,0.461-6.14
		c0.114-1.021,0.207-2.044,0.335-3.067c0.127-1.022,0.262-2.046,0.434-3.069c0.176,1.021,0.31,2.045,0.437,3.069
		c0.129,1.023,0.222,2.044,0.335,3.068c0.196,2.046,0.344,4.092,0.462,6.136c0.121,2.048,0.195,4.093,0.253,6.14
		c0.054,2.045,0.076,4.089,0.078,6.137l0.004,1.567l-1.568-0.004c-2.037-0.007-4.076-0.027-6.114-0.083
		c-2.04-0.057-4.077-0.138-6.117-0.256c-2.039-0.12-4.075-0.264-6.116-0.461c-1.019-0.113-2.039-0.204-3.058-0.333
		C62.064,126.551,61.045,126.418,60.026,126.247z"/>
</g>
<g>
	<polygon points="41.8,80.322 77.192,118.905 38.609,83.512 	"/>
</g>
</svg>
