<?xml version="1.0" encoding="utf-8"?>
<!-- Generator: Adobe Illustrator 16.0.0, SVG Export Plug-In . SVG Version: 6.00 Build 0)  -->
<!DOCTYPE svg PUBLIC "-//W3C//DTD SVG 1.1//EN" "http://www.w3.org/Graphics/SVG/1.1/DTD/svg11.dtd">
<svg version="1.1" id="Calque_1" xmlns="http://www.w3.org/2000/svg" xmlns:xlink="http://www.w3.org/1999/xlink" x="0px" y="0px"
	 width="141.73px" height="141.73px" viewBox="0 0 141.73 141.73" enable-background="new 0 0 141.73 141.73" xml:space="preserve">
<g>
	<path d="M48.773,73.648c3.244-0.277,6.488-0.523,9.731-0.74c3.244-0.203,6.488-0.441,9.732-0.614l9.731-0.524
		c3.244-0.189,6.487-0.289,9.731-0.437l9.731-0.411l9.732-0.328l9.731-0.271l9.731-0.22l8.538-0.193l-6.031,6.247l-7.729,8.007
		c-2.577,2.669-5.167,5.324-7.771,7.966l-7.809,7.929l-7.844,7.893l-1.172,1.179l-1.656-0.007
		c-6.488-0.028-12.976-0.011-19.464-0.087c-6.487-0.047-12.975-0.138-19.463-0.248l-9.731-0.197l-9.732-0.244
		c-6.488-0.177-12.976-0.38-19.463-0.659l-6.282-0.271l4.47-4.105l8.203-7.534c2.73-2.516,5.52-4.972,8.277-7.46l4.155-3.714
		l4.192-3.677c1.396-1.228,2.793-2.452,4.21-3.658C45.936,76.058,47.343,74.841,48.773,73.648c-1.192,1.431-2.409,2.837-3.619,4.249
		c-1.206,1.418-2.431,2.815-3.659,4.211L37.818,86.3l-3.713,4.155c-2.489,2.758-4.944,5.548-7.46,8.277l-7.535,8.203l-1.812-4.376
		c6.488-0.279,12.976-0.482,19.463-0.659l9.732-0.244l9.731-0.197c6.488-0.11,12.976-0.201,19.463-0.248
		c6.488-0.076,12.976-0.059,19.464-0.087l-2.827,1.171l7.893-7.844l7.929-7.809c2.642-2.604,5.297-5.194,7.966-7.771l8.007-7.73
		l2.508,6.053l-9.731-0.221l-9.731-0.271l-9.732-0.328l-9.731-0.411c-3.244-0.148-6.487-0.248-9.731-0.438l-9.731-0.523
		c-3.244-0.173-6.488-0.411-9.732-0.614C55.261,74.172,52.017,73.926,48.773,73.648z"/>
</g>
<g>
	<path d="M12.667,102.333c-0.292-2.438-0.567-4.874-0.786-7.312c-0.218-2.438-0.476-4.875-0.645-7.312l-0.561-7.312l-0.442-7.312
		c-0.142-2.438-0.309-4.875-0.412-7.312c-0.115-2.438-0.241-4.875-0.328-7.312l-0.269-7.312L9.011,43.84l-0.105-3.571l3.761-0.085
		c4.328-0.098,8.656-0.199,12.983-0.241c4.328-0.074,8.655-0.073,12.983-0.096l6.491,0.015l6.492,0.04
		c4.328,0.059,8.656,0.103,12.983,0.215l1.623,0.042l1.009,1.048c2.168,2.251,4.312,4.526,6.449,6.808
		c2.15,2.269,4.261,4.578,6.385,6.872l-2.209-0.915l7.619,0.355l7.619,0.453c2.54,0.161,5.079,0.286,7.619,0.501l7.619,0.597
		l1.322,0.104l-0.104,1.115l-0.556,5.945l-0.318,2.973c-0.104,0.991-0.217,1.981-0.344,2.972c-0.127-0.991-0.239-1.981-0.344-2.972
		l-0.318-2.973l-0.556-5.945l1.218,1.218l-7.619,0.597c-2.54,0.215-5.079,0.341-7.619,0.501l-7.619,0.453l-7.619,0.355l-1.162,0.054
		l-1.048-0.969c-2.294-2.125-4.603-4.235-6.872-6.385c-2.282-2.138-4.557-4.281-6.808-6.449l2.632,1.09
		c-4.328,0.112-8.656,0.157-12.983,0.215l-6.492,0.04l-6.491,0.015c-4.328-0.023-8.656-0.022-12.983-0.096
		c-4.328-0.042-8.656-0.143-12.983-0.241l3.656-3.656l-0.214,7.312l-0.269,7.312c-0.087,2.437-0.213,4.874-0.328,7.312
		c-0.103,2.437-0.27,4.875-0.412,7.312l-0.442,7.312l-0.561,7.312c-0.168,2.437-0.427,4.874-0.645,7.312
		C13.234,97.459,12.958,99.896,12.667,102.333z"/>
</g>
</svg>
