<?xml version="1.0" encoding="utf-8"?>
<!-- Generator: Adobe Illustrator 16.0.0, SVG Export Plug-In . SVG Version: 6.00 Build 0)  -->
<!DOCTYPE svg PUBLIC "-//W3C//DTD SVG 1.1//EN" "http://www.w3.org/Graphics/SVG/1.1/DTD/svg11.dtd">
<svg version="1.1" id="Calque_1" xmlns="http://www.w3.org/2000/svg" xmlns:xlink="http://www.w3.org/1999/xlink" x="0px" y="0px"
	 width="141.73px" height="141.73px" viewBox="0 0 141.73 141.73" enable-background="new 0 0 141.73 141.73" xml:space="preserve">
<g>
	<path d="M97.553,1.361c-4.821,6.742-9.965,13.163-15.18,19.512l-3.947,4.726l-3.992,4.681c-1.328,1.563-2.681,3.101-4.033,4.64
		c-1.355,1.536-2.691,3.091-4.067,4.606c-2.731,3.051-5.467,6.097-8.25,9.097c-1.389,1.502-2.759,3.023-4.169,4.504l-4.206,4.467
		c-2.798,2.984-5.666,5.898-8.496,8.851l-8.611,8.735v-8.87l8.652,8.753l4.272,4.432c1.419,1.481,2.86,2.941,4.258,4.444
		c2.807,2.996,5.646,5.959,8.408,8.999c2.791,3.012,5.544,6.06,8.28,9.126c1.379,1.522,2.727,3.075,4.083,4.62
		c1.353,1.548,2.717,3.085,4.048,4.655c2.688,3.115,5.337,6.268,7.967,9.439c5.23,6.373,10.391,12.817,15.223,19.59
		c-6.772-4.832-13.217-9.992-19.59-15.223c-3.172-2.63-6.324-5.279-9.439-7.967c-1.57-1.331-3.107-2.694-4.655-4.048
		c-1.545-1.355-3.098-2.704-4.62-4.083c-3.067-2.735-6.115-5.489-9.126-8.279c-3.04-2.763-6.003-5.602-8.999-8.407
		c-1.503-1.398-2.963-2.84-4.445-4.259l-4.431-4.271l-8.754-8.652l-4.493-4.441l4.493-4.429l8.734-8.611
		c2.953-2.83,5.867-5.697,8.851-8.495l4.467-4.206c1.481-1.41,3.002-2.78,4.504-4.169c3-2.783,6.046-5.518,9.097-8.25
		c1.516-1.375,3.07-2.711,4.606-4.067c1.539-1.352,3.077-2.705,4.641-4.032l4.681-3.993l4.726-3.947
		C84.39,11.326,90.811,6.183,97.553,1.361z"/>
</g>
</svg>
