<?xml version="1.0" encoding="utf-8"?>
<!-- Generator: Adobe Illustrator 16.0.0, SVG Export Plug-In . SVG Version: 6.00 Build 0)  -->
<!DOCTYPE svg PUBLIC "-//W3C//DTD SVG 1.1//EN" "http://www.w3.org/Graphics/SVG/1.1/DTD/svg11.dtd">
<svg version="1.1" id="Calque_1" xmlns="http://www.w3.org/2000/svg" xmlns:xlink="http://www.w3.org/1999/xlink" x="0px" y="0px"
	 width="141.73px" height="141.73px" viewBox="0 0 141.73 141.73" enable-background="new 0 0 141.73 141.73" xml:space="preserve">
<g>
	<path fill="#010202" d="M99.365,33.115c0,0-0.029,0.674-0.084,1.938c-0.022,0.315-0.011,0.671-0.064,1.056
		c-0.057,0.385-0.117,0.806-0.184,1.26c-0.073,0.453-0.12,0.947-0.229,1.461c-0.128,0.511-0.264,1.054-0.406,1.628
		c-0.631,2.27-1.621,5.008-3.402,7.806c-1.758,2.799-4.277,5.658-7.615,8.071c-3.354,2.369-7.564,4.215-12.303,4.965
		c-0.589,0.114-1.193,0.123-1.798,0.189c-0.622,0.034-1.181,0.146-1.869,0.115c-1.199-0.032-2.366,0.028-3.678-0.174
		c-2.599-0.228-5.089-0.925-7.58-1.891c-2.479-0.986-4.811-2.418-7.011-4.084c-2.162-1.726-4.054-3.821-5.708-6.121
		c-1.619-2.332-2.86-4.941-3.744-7.683c-0.845-2.759-1.241-5.643-1.323-8.535l0.115-2.122c0.009-0.646,0.132-1.399,0.251-2.14
		c0.179-1.507,0.582-2.883,0.954-4.273c0.887-2.739,2.118-5.355,3.74-7.687c1.653-2.302,3.55-4.393,5.707-6.125
		c2.201-1.667,4.534-3.099,7.014-4.085c2.476-0.968,5.016-1.668,7.55-1.888c1.256-0.2,2.517-0.148,3.748-0.179
		c0.176,0,0.259-0.009,0.511,0l0.442,0.039l0.882,0.078c0.591,0.066,1.156,0.072,1.758,0.186c4.819,0.758,8.972,2.603,12.344,4.974
		c3.339,2.414,5.855,5.276,7.614,8.074c1.78,2.798,2.77,5.538,3.4,7.807c0.144,0.574,0.279,1.117,0.406,1.628
		c0.109,0.515,0.156,1.008,0.229,1.461c0.066,0.454,0.128,0.875,0.184,1.259c0.054,0.385,0.042,0.741,0.064,1.057
		C99.336,32.441,99.365,33.115,99.365,33.115z M99.365,33.115c0,0-0.039-0.674-0.111-1.937c-0.026-0.315-0.021-0.67-0.079-1.054
		c-0.062-0.384-0.129-0.802-0.201-1.255c-0.079-0.451-0.133-0.942-0.249-1.454c-0.135-0.507-0.277-1.047-0.428-1.617
		c-0.655-2.25-1.671-4.978-3.573-7.655c-1.855-2.681-4.422-5.429-7.823-7.533c-1.72-1.006-3.559-1.979-5.596-2.625
		c-0.508-0.162-1.019-0.325-1.534-0.489c-0.528-0.114-1.062-0.229-1.599-0.345c-1.067-0.287-2.161-0.31-3.253-0.465
		c-0.544-0.067-1.154-0.031-1.734-0.052L72.3,6.625l-0.444-0.006l-0.38,0.036c-1.142,0.119-2.302,0.151-3.443,0.427
		c-2.31,0.362-4.554,1.213-6.728,2.206c-2.174,1.025-4.172,2.446-6.026,4.036c-1.829,1.632-3.429,3.533-4.791,5.604
		c-1.311,2.109-2.322,4.399-3.079,6.777c-0.3,1.212-0.64,2.431-0.757,3.612c-0.091,0.591-0.197,1.17-0.2,1.876l-0.089,1.921
		c0.045,2.505,0.346,5.007,1.043,7.41c0.173,0.6,0.413,1.178,0.613,1.768c0.109,0.292,0.198,0.592,0.323,0.876l0.399,0.844
		c0.275,0.557,0.476,1.154,0.809,1.68l0.931,1.613c1.361,2.074,2.966,3.971,4.79,5.609c1.855,1.59,3.854,3.011,6.03,4.036
		c2.159,0.995,4.452,1.849,6.698,2.203c1.085,0.273,2.339,0.313,3.513,0.431c0.5,0.071,1.123,0.007,1.675,0.018
		c0.566-0.02,1.137,0.018,1.694-0.049c4.485-0.352,8.638-1.828,12.022-3.932c3.402-2.104,5.966-4.856,7.821-7.536
		c1.903-2.678,2.917-5.406,3.572-7.656c0.15-0.57,0.294-1.109,0.428-1.617c0.116-0.512,0.17-1.002,0.249-1.453
		c0.073-0.453,0.14-0.871,0.201-1.255c0.059-0.384,0.053-0.74,0.079-1.054C99.326,33.789,99.365,33.115,99.365,33.115z"/>
</g>
<g>
	<path fill="#010202" d="M80.837,137.451l7.284-0.214l7.275-0.385l7.267-0.528l7.253-0.684l-0.166,0.159
		c0.251-2.043,0.103-4.124,0.106-6.205l-0.09-6.238l-0.25-12.475l-0.501-24.95c-0.062-3.949-1.416-7.794-3.763-10.874
		c-2.328-3.094-5.645-5.384-9.287-6.478c-1.814-0.571-3.714-0.839-5.61-0.825l-6.229,0.085c-4.158,0.076-8.317,0.069-12.476,0.096
		c-4.158,0.006-8.316,0.069-12.475,0.029l-6.188-0.018c-1.876,0.028-3.743,0.373-5.515,0.985c-3.547,1.22-6.722,3.569-8.916,6.664
		c-2.201,3.107-3.39,6.837-3.411,10.764l-0.52,24.95l-0.26,12.476l-0.13,6.237c-0.021,2.072-0.188,4.193,0.12,6.148l-0.48-0.416
		l5.875,0.239l5.87,0.278l11.733,0.595c3.91,0.215,7.823,0.329,11.736,0.453l5.872,0.116L80.837,137.451z M80.837,137.451
		l-5.873,0.036l-5.874-0.066l-11.744-0.299l-11.743-0.302l-5.871-0.086l-5.869,0.006h-0.4l-0.08-0.416
		c-0.416-2.157-0.322-4.223-0.391-6.301l-0.13-6.237l-0.26-12.476l-0.52-24.95c-0.088-2.151,0.139-4.475,0.736-6.634
		c0.598-2.177,1.567-4.251,2.823-6.135c2.521-3.753,6.232-6.759,10.545-8.288c2.149-0.767,4.42-1.207,6.702-1.265l6.287-0.044
		c4.158-0.04,8.316,0.023,12.475,0.029c4.158,0.027,8.317,0.02,12.476,0.096l6.245,0.089c2.261,0.047,4.519,0.428,6.65,1.172
		c4.261,1.503,7.982,4.371,10.489,8.049c2.531,3.66,3.841,8.125,3.704,12.5l-0.501,24.95l-0.25,12.475l-0.09,6.238
		c-0.054,2.071,0.047,4.166-0.259,6.254l-0.021,0.149l-0.146,0.01l-7.271,0.51l-7.274,0.455l-7.281,0.324L80.837,137.451z"/>
</g>
</svg>
