<?xml version="1.0" encoding="utf-8"?>
<!-- Generator: Adobe Illustrator 16.0.0, SVG Export Plug-In . SVG Version: 6.00 Build 0)  -->
<!DOCTYPE svg PUBLIC "-//W3C//DTD SVG 1.1//EN" "http://www.w3.org/Graphics/SVG/1.1/DTD/svg11.dtd">
<svg version="1.1" id="Calque_1" xmlns="http://www.w3.org/2000/svg" xmlns:xlink="http://www.w3.org/1999/xlink" x="0px" y="0px"
	 width="141.73px" height="141.73px" viewBox="0 0 141.73 141.73" enable-background="new 0 0 141.73 141.73" xml:space="preserve">
<g>
	<path fill="#010202" d="M89.382,51.82c0,0-0.042,0.866-0.122,2.49c0.001,0.816-0.164,1.806-0.353,2.971
		c-0.108,0.579-0.149,1.218-0.333,1.87c-0.17,0.655-0.352,1.351-0.542,2.086c-0.861,2.903-2.228,6.384-4.601,9.93
		c-2.374,3.529-5.747,7.093-10.15,10.036c-4.401,2.925-9.853,5.179-15.95,6.116c-0.76,0.128-1.536,0.154-2.313,0.236l-1.174,0.103
		l-0.591,0.051l-0.643-0.001c-1.546-0.037-3.034,0.062-4.726-0.179c-0.825-0.094-1.671-0.158-2.498-0.285
		c-0.812-0.165-1.627-0.331-2.447-0.497c-0.83-0.14-1.635-0.387-2.444-0.643c-0.806-0.259-1.635-0.479-2.432-0.791
		c-3.205-1.229-6.306-2.897-9.218-4.962c-2.84-2.156-5.441-4.716-7.669-7.638c-2.169-2.965-3.933-6.272-5.17-9.812
		c-1.167-3.566-1.727-7.32-1.816-11.082l0.149-2.747c0.007-0.822,0.192-1.83,0.343-2.791c0.239-1.979,0.812-3.739,1.317-5.546
		c1.244-3.538,2.993-6.852,5.154-9.826c2.211-2.942,4.851-5.47,7.682-7.635c2.914-2.065,6.017-3.734,9.223-4.962
		c6.43-2.362,13.245-2.877,19.22-2.01c0.77,0.142,1.535,0.282,2.294,0.422l1.128,0.211l1.081,0.31
		c0.715,0.206,1.425,0.411,2.129,0.614c0.7,0.208,1.363,0.518,2.036,0.768c0.664,0.274,1.346,0.486,1.976,0.803
		c0.63,0.315,1.255,0.628,1.873,0.938l0.92,0.462c0.297,0.17,0.581,0.359,0.869,0.536c0.573,0.358,1.141,0.713,1.702,1.064
		c4.416,2.935,7.748,6.538,10.136,10.05c2.388,3.535,3.751,7.02,4.611,9.922c0.191,0.735,0.372,1.431,0.542,2.086
		c0.184,0.651,0.225,1.29,0.333,1.869c0.188,1.165,0.354,2.154,0.353,2.971C89.34,50.954,89.382,51.82,89.382,51.82z M89.382,51.82
		c0,0-0.049-0.866-0.142-2.489c-0.005-0.816-0.179-1.804-0.376-2.966c-0.113-0.577-0.158-1.214-0.347-1.863
		c-0.182-0.65-0.375-1.341-0.58-2.071c-0.922-2.873-2.355-6.315-4.868-9.702c-2.492-3.373-5.961-6.742-10.434-9.257
		c-0.564-0.3-1.134-0.604-1.71-0.911c-0.289-0.151-0.573-0.312-0.868-0.456l-0.916-0.381c-0.611-0.255-1.228-0.512-1.851-0.772
		c-0.62-0.262-1.288-0.417-1.938-0.633c-0.659-0.185-1.306-0.428-1.986-0.569c-0.681-0.136-1.367-0.273-2.059-0.412l-1.037-0.208
		l-1.045-0.104c-0.695-0.072-1.396-0.145-2.101-0.217c-0.71-0.062-1.487-0.026-2.234-0.043l-1.138-0.008l-0.571-0.004L52.699,18.8
		c-1.467,0.161-2.957,0.192-4.423,0.541c-2.971,0.437-5.853,1.517-8.68,2.697c-2.792,1.301-5.433,2.977-7.858,4.956
		c-2.373,2.044-4.517,4.371-6.332,6.958c-1.735,2.639-3.138,5.494-4.137,8.5c-0.367,1.534-0.865,3.08-1.019,4.556
		c-0.115,0.751-0.278,1.447-0.284,2.365L19.84,51.82c0.047,3.18,0.54,6.327,1.422,9.372c1.005,3.004,2.393,5.866,4.12,8.515
		c1.797,2.606,3.98,4.9,6.344,6.954c2.427,1.979,5.07,3.655,7.863,4.956c0.693,0.334,1.426,0.567,2.131,0.864
		c0.708,0.291,1.417,0.578,2.155,0.762c0.731,0.213,1.459,0.426,2.184,0.637c0.725,0.172,1.446,0.283,2.167,0.431
		c1.392,0.345,3.016,0.387,4.521,0.546l0.501,0.045l0.55-0.004l1.097-0.007c0.728-0.017,1.459,0.022,2.177-0.039
		c0.718-0.074,1.431-0.147,2.14-0.22l1.062-0.108l1.037-0.208c0.691-0.139,1.378-0.276,2.059-0.413
		c0.681-0.142,1.328-0.383,1.987-0.571c0.648-0.216,1.316-0.372,1.938-0.634c0.622-0.26,1.239-0.518,1.851-0.772l0.916-0.382
		c0.295-0.144,0.579-0.306,0.868-0.456c0.576-0.308,1.146-0.611,1.71-0.912c4.485-2.507,7.913-5.916,10.419-9.271
		c2.527-3.375,3.958-6.822,4.88-9.694c0.204-0.73,0.397-1.421,0.579-2.071c0.188-0.649,0.233-1.286,0.347-1.863
		c0.197-1.162,0.371-2.15,0.376-2.966C89.333,52.686,89.382,51.82,89.382,51.82z"/>
</g>
<g>
	<path fill="#010202" d="M72.536,88.568c1.581,1.719,3.145,3.452,4.686,5.202c1.553,1.741,3.086,3.498,4.606,5.265
		c3.07,3.51,6.049,7.091,9.066,10.642l4.454,5.383c1.479,1.8,2.981,3.579,4.438,5.396l8.765,10.877l-3.362-0.087
		c3.535-4.185,7.097-8.347,10.679-12.492l5.395-6.197l5.438-6.161l0.535,3.239l-8.796-5.445l-4.36-2.788
		c-1.449-0.937-2.917-1.842-4.351-2.805c-2.881-1.903-5.771-3.791-8.615-5.755c-1.433-0.966-2.85-1.956-4.263-2.954
		c-1.419-0.988-2.821-2.004-4.216-3.034c1.579,0.715,3.149,1.444,4.705,2.2c1.561,0.747,3.116,1.502,4.657,2.281
		c3.103,1.525,6.16,3.127,9.227,4.714c1.54,0.782,3.046,1.622,4.57,2.43l4.561,2.447l9.045,5.022l2.228,1.238l-1.692,2.003
		l-5.304,6.276l-5.347,6.24c-3.579,4.146-7.179,8.276-10.805,12.383l-1.782,2.02l-1.58-2.105l-8.385-11.172
		c-1.401-1.859-2.756-3.755-4.137-5.63l-4.12-5.642c-2.699-3.799-5.437-7.568-8.083-11.408c-1.338-1.908-2.663-3.826-3.969-5.76
		C75.108,92.466,73.813,90.524,72.536,88.568z"/>
</g>
</svg>
