<?xml version="1.0" encoding="utf-8"?>
<!-- Generator: Adobe Illustrator 16.0.0, SVG Export Plug-In . SVG Version: 6.00 Build 0)  -->
<!DOCTYPE svg PUBLIC "-//W3C//DTD SVG 1.1//EN" "http://www.w3.org/Graphics/SVG/1.1/DTD/svg11.dtd">
<svg version="1.1" id="Calque_1" xmlns="http://www.w3.org/2000/svg" xmlns:xlink="http://www.w3.org/1999/xlink" x="0px" y="0px"
	 width="141.73px" height="141.73px" viewBox="0 0 141.73 141.73" enable-background="new 0 0 141.73 141.73" xml:space="preserve">
<g>
	<path d="M28.316,86.886c2.119,1.504,4.165,3.08,6.199,4.669c2.044,1.579,4.036,3.21,6.027,4.842
		c1.98,1.643,3.949,3.296,5.894,4.975l2.908,2.527l2.886,2.548c1.911,1.711,3.82,3.425,5.7,5.169
		c1.896,1.726,3.754,3.491,5.621,5.247c3.723,3.522,7.384,7.107,11.019,10.719h-5.558l5.484-5.422
		c1.855-1.78,3.693-3.577,5.562-5.345c1.877-1.759,3.734-3.537,5.639-5.268c1.887-1.749,3.797-3.474,5.718-5.188
		c1.92-1.717,3.858-3.413,5.812-5.095c1.952-1.684,3.927-3.344,5.914-4.992c1.999-1.637,3.998-3.272,6.05-4.856
		c2.043-1.593,4.097-3.174,6.225-4.682c-1.507,2.128-3.089,4.183-4.681,6.225c-1.584,2.052-3.221,4.051-4.857,6.05
		c-1.647,1.987-3.308,3.963-4.991,5.914c-1.682,1.954-3.379,3.893-5.095,5.812c-1.714,1.922-3.439,3.832-5.188,5.719
		c-1.73,1.904-3.509,3.762-5.268,5.639c-1.767,1.868-3.563,3.706-5.345,5.562l-5.421,5.484l-2.771,2.805l-2.786-2.805
		c-3.611-3.634-7.196-7.295-10.719-11.018c-1.755-1.867-3.521-3.725-5.247-5.621c-1.744-1.88-3.458-3.789-5.169-5.7l-2.548-2.886
		l-2.527-2.908c-1.679-1.944-3.333-3.913-4.975-5.894c-1.632-1.99-3.263-3.982-4.842-6.026
		C31.397,91.051,29.821,89.004,28.316,86.886z"/>
</g>
<g>
	<polygon points="75.865,12.844 71.865,105.581 67.865,12.844 	"/>
</g>
</svg>
