<?xml version="1.0" encoding="utf-8"?>
<!-- Generator: Adobe Illustrator 16.0.0, SVG Export Plug-In . SVG Version: 6.00 Build 0)  -->
<!DOCTYPE svg PUBLIC "-//W3C//DTD SVG 1.1//EN" "http://www.w3.org/Graphics/SVG/1.1/DTD/svg11.dtd">
<svg version="1.1" id="Calque_1" xmlns="http://www.w3.org/2000/svg" xmlns:xlink="http://www.w3.org/1999/xlink" x="0px" y="0px"
	 width="141.73px" height="141.73px" viewBox="0 0 141.73 141.73" enable-background="new 0 0 141.73 141.73" xml:space="preserve">
<g>
	<path d="M28.409,1.361c6.742,4.822,13.163,9.965,19.513,15.18l4.726,3.947l4.681,3.993c1.563,1.327,3.102,2.681,4.641,4.032
		c1.535,1.355,3.091,2.691,4.605,4.067c3.051,2.731,6.098,5.467,9.096,8.25c1.504,1.389,3.023,2.759,4.504,4.169l4.469,4.206
		c2.982,2.798,5.898,5.666,8.85,8.495l8.734,8.611l4.494,4.429l-4.494,4.441l-8.754,8.652l-4.43,4.271
		c-1.482,1.42-2.943,2.861-4.445,4.258c-2.996,2.807-5.959,5.646-9,8.408c-3.012,2.791-6.059,5.545-9.125,8.279
		c-1.522,1.379-3.075,2.729-4.62,4.084c-1.548,1.354-3.085,2.717-4.655,4.047c-3.115,2.688-6.268,5.338-9.439,7.967
		c-6.373,5.23-12.818,10.391-19.59,15.223c4.832-6.771,9.992-13.217,15.223-19.59c2.63-3.172,5.279-6.324,7.967-9.439
		c1.331-1.57,2.694-3.107,4.048-4.654c1.355-1.545,2.704-3.098,4.083-4.621c2.735-3.066,5.489-6.113,8.28-9.125
		c2.762-3.041,5.601-6.004,8.408-9c1.396-1.502,2.838-2.963,4.258-4.445l4.271-4.43l8.652-8.754v8.87l-8.611-8.735
		c-2.83-2.953-5.697-5.867-8.496-8.851l-4.205-4.467c-1.41-1.481-2.78-3.002-4.168-4.504c-2.783-3-5.519-6.046-8.249-9.097
		c-1.376-1.516-2.712-3.07-4.067-4.606c-1.352-1.539-2.705-3.077-4.032-4.64l-3.993-4.681l-3.946-4.726
		C38.374,14.524,33.23,8.103,28.409,1.361z"/>
</g>
</svg>
