<?xml version="1.0" encoding="utf-8"?>
<!-- Generator: Adobe Illustrator 16.0.0, SVG Export Plug-In . SVG Version: 6.00 Build 0)  -->
<!DOCTYPE svg PUBLIC "-//W3C//DTD SVG 1.1//EN" "http://www.w3.org/Graphics/SVG/1.1/DTD/svg11.dtd">
<svg version="1.1" id="Calque_1" xmlns="http://www.w3.org/2000/svg" xmlns:xlink="http://www.w3.org/1999/xlink" x="0px" y="0px"
	 width="141.73px" height="141.73px" viewBox="0 0 141.73 141.73" enable-background="new 0 0 141.73 141.73" xml:space="preserve">
<g>
	<path fill="#010202" d="M46.837,82.75c1.097,0.779,2.157,1.596,3.21,2.418c1.058,0.818,2.089,1.662,3.12,2.508
		c1.025,0.85,2.045,1.707,3.053,2.576l1.505,1.309l1.495,1.318c0.989,0.887,1.978,1.773,2.951,2.676
		c0.981,0.895,1.943,1.809,2.91,2.719c1.928,1.822,3.824,3.68,5.706,5.549H67.91l2.839-2.807c0.961-0.922,1.914-1.854,2.88-2.768
		c0.973-0.91,1.934-1.832,2.92-2.729c0.977-0.906,1.967-1.799,2.961-2.686c0.994-0.889,1.998-1.768,3.01-2.639
		c1.01-0.871,2.033-1.732,3.062-2.584c1.035-0.848,2.07-1.695,3.133-2.516c1.057-0.824,2.121-1.643,3.223-2.424
		c-0.781,1.102-1.6,2.166-2.424,3.223c-0.82,1.062-1.668,2.098-2.516,3.133c-0.852,1.029-1.713,2.053-2.584,3.062
		c-0.871,1.012-1.75,2.016-2.639,3.01c-0.887,0.994-1.779,1.984-2.686,2.961c-0.896,0.986-1.816,1.947-2.729,2.92
		c-0.914,0.967-1.844,1.918-2.768,2.881l-2.806,2.84l-1.436,1.451l-1.441-1.451c-1.87-1.883-3.727-3.779-5.551-5.707
		c-0.909-0.967-1.823-1.928-2.717-2.91c-0.903-0.973-1.791-1.961-2.677-2.951l-1.319-1.494l-1.309-1.506
		c-0.869-1.006-1.726-2.025-2.576-3.051c-0.845-1.031-1.689-2.062-2.507-3.121C48.433,84.906,47.617,83.848,46.837,82.75z"/>
</g>
<g>
	<polygon fill="#010202" points="71.458,32.834 69.386,92.43 67.316,32.834 	"/>
</g>
<g>
	<path fill="#010202" d="M70.475,57.354c0,0,0.912,0.07,2.623,0.201c0.426,0.043,0.908,0.044,1.427,0.134
		c0.52,0.093,1.086,0.194,1.698,0.304c0.61,0.12,1.276,0.205,1.968,0.376c0.688,0.192,1.417,0.397,2.188,0.613
		c3.051,0.934,6.729,2.371,10.441,4.906c3.716,2.498,7.484,6.027,10.606,10.648c3.063,4.641,5.378,10.415,6.186,16.852
		c0.129,0.801,0.114,1.618,0.178,2.438l0.067,1.237l0.033,0.622l-0.025,0.668c-0.095,1.622-0.065,3.21-0.396,4.968
		c-0.417,3.493-1.47,6.829-2.878,10.148c-0.392,0.811-0.785,1.623-1.181,2.439c-0.406,0.812-0.926,1.564-1.389,2.354l-0.72,1.176
		l-0.822,1.11c-0.564,0.73-1.091,1.501-1.696,2.207c-2.419,2.843-5.322,5.309-8.491,7.443c-3.214,2.082-6.779,3.653-10.506,4.753
		c-3.75,1.053-7.664,1.435-11.562,1.427l-2.861-0.232c-0.467-0.052-0.885-0.043-1.393-0.146l-1.485-0.268l-1.483-0.274l-0.74-0.141
		l-0.703-0.201l-2.797-0.831c-3.655-1.319-7.129-3.085-10.215-5.354c-3.042-2.316-5.791-4.953-8.048-7.927
		c-0.564-0.74-1.045-1.54-1.565-2.303l-0.756-1.157l-0.65-1.217c-0.417-0.816-0.891-1.598-1.249-2.432
		c-0.347-0.839-0.692-1.674-1.036-2.506c-1.215-3.378-2.073-6.831-2.278-10.263c-0.226-1.704-0.11-3.404-0.108-5.07l0.004-0.312
		l0.002-0.156l0.001-0.078l0.01-0.139l0.069-0.599l0.137-1.191c0.11-0.798,0.138-1.566,0.314-2.373
		c0.173-0.804,0.345-1.601,0.516-2.393c0.093-0.392,0.156-0.793,0.274-1.171l0.365-1.124c0.243-0.744,0.483-1.482,0.722-2.215
		c0.292-0.713,0.611-1.408,0.912-2.102c1.173-2.789,2.77-5.248,4.384-7.51c3.387-4.431,7.359-7.731,11.214-10.009
		c3.854-2.314,7.611-3.532,10.711-4.287c0.783-0.17,1.523-0.332,2.22-0.484c0.701-0.13,1.371-0.177,1.986-0.261
		c0.618-0.074,1.189-0.142,1.712-0.205c0.524-0.059,1.005-0.032,1.433-0.05C69.561,57.37,70.475,57.354,70.475,57.354z
		 M70.475,57.354c0,0-0.915,0.022-2.629,0.064c-0.428,0.021-0.909-0.002-1.432,0.06c-0.523,0.066-1.093,0.138-1.71,0.216
		c-0.615,0.088-1.283,0.139-1.982,0.273c-0.693,0.163-1.43,0.335-2.209,0.518c-3.076,0.809-6.806,2.09-10.517,4.551
		c-3.711,2.402-7.544,5.768-10.545,10.29c-1.438,2.29-2.837,4.743-3.803,7.48c-0.241,0.683-0.5,1.365-0.731,2.061
		c-0.178,0.713-0.357,1.431-0.539,2.154l-0.272,1.086c-0.087,0.363-0.115,0.733-0.176,1.101c-0.108,0.733-0.217,1.472-0.326,2.216
		c-0.115,0.737-0.093,1.563-0.146,2.349l-0.054,1.198l-0.027,0.603l0.032,0.522c0.111,1.558,0.104,3.136,0.429,4.698
		c0.392,3.155,1.448,6.245,2.705,9.246c0.355,0.734,0.711,1.473,1.069,2.213c0.365,0.735,0.842,1.415,1.257,2.128l0.644,1.06
		l0.744,0.998c0.509,0.656,0.975,1.348,1.518,1.979c2.144,2.561,4.666,4.819,7.431,6.762l2.158,1.337
		c0.702,0.478,1.509,0.77,2.252,1.176l1.135,0.575c0.384,0.181,0.79,0.312,1.183,0.472c0.797,0.294,1.576,0.642,2.386,0.897
		l2.46,0.686l0.614,0.175l0.607,0.105l1.213,0.219l1.213,0.225c0.388,0.09,0.893,0.085,1.333,0.133l2.61,0.204
		c3.419,0.033,6.832-0.316,10.138-1.149c0.824-0.209,1.622-0.51,2.435-0.757c0.402-0.137,0.815-0.244,1.209-0.402l1.167-0.507
		c0.77-0.354,1.591-0.605,2.32-1.039l2.232-1.209c2.876-1.777,5.521-3.892,7.818-6.316c0.58-0.6,1.084-1.263,1.631-1.889
		l0.801-0.954l0.705-1.021c0.455-0.688,0.972-1.339,1.379-2.052c0.4-0.719,0.8-1.435,1.196-2.147
		c1.432-2.904,2.672-5.988,3.235-9.036c0.409-1.472,0.509-3.164,0.711-4.753l0.06-0.536l0.008-0.582l0.016-1.16
		c-0.008-0.771,0.064-1.544-0.007-2.304c-0.319-6.106-2.175-11.795-4.906-16.463c-2.732-4.69-6.366-8.271-9.93-10.887
		c-3.562-2.673-7.212-4.167-10.235-5.155c-0.767-0.228-1.492-0.443-2.175-0.646c-0.689-0.175-1.354-0.265-1.962-0.388
		c-0.611-0.114-1.177-0.219-1.694-0.315c-0.519-0.093-1.001-0.097-1.427-0.144C71.387,57.429,70.475,57.354,70.475,57.354z"/>
</g>
</svg>
