<?xml version="1.0" encoding="utf-8"?>
<!-- Generator: Adobe Illustrator 16.0.0, SVG Export Plug-In . SVG Version: 6.00 Build 0)  -->
<!DOCTYPE svg PUBLIC "-//W3C//DTD SVG 1.1//EN" "http://www.w3.org/Graphics/SVG/1.1/DTD/svg11.dtd">
<svg version="1.1" id="Calque_1" xmlns="http://www.w3.org/2000/svg" xmlns:xlink="http://www.w3.org/1999/xlink" x="0px" y="0px"
	 width="141.73px" height="141.73px" viewBox="0 0 141.73 141.73" enable-background="new 0 0 141.73 141.73" xml:space="preserve">
<g>
	<path fill="#010202" d="M131.553,130.221l-15.064,0.607l-15.063,0.506l-15.064,0.441l-15.063,0.416l-30.13,0.66l-15.063,0.264
		l-15.064,0.234l-3.081,0.049l-0.049-3.178L7.68,115.486L7.531,100.75L7.255,71.282c-0.062-4.912-0.058-9.823-0.077-14.735
		L7.132,41.812l-0.093-29.47l-0.013-4.01l4.01,0.013l30.129,0.09l15.064,0.048C61.25,8.502,66.272,8.5,71.295,8.562l30.129,0.286
		l15.063,0.157l15.064,0.237l3.152,0.049l-0.053,3.051c-0.171,9.823-0.271,19.646-0.501,29.47l-0.654,29.47l-0.408,14.734
		l-0.438,14.734l-0.5,14.734L131.553,130.221z M131.553,130.221l-0.599-14.734l-0.5-14.734l-0.438-14.734l-0.409-14.734
		l-0.654-29.47c-0.229-9.823-0.33-19.646-0.501-29.469l3.102,3.101l-15.064,0.237l-15.063,0.157l-30.129,0.286
		c-5.022,0.062-10.043,0.06-15.065,0.079l-15.064,0.048l-30.129,0.091l3.998-3.998l-0.092,29.469l-0.046,14.734
		c-0.02,4.912-0.016,9.823-0.077,14.735l-0.278,29.469l-0.145,14.734l-0.23,14.734l-3.13-3.131l15.064,0.236l15.063,0.264
		l30.13,0.658l15.063,0.416l15.064,0.443l15.063,0.506L131.553,130.221z"/>
</g>
<g>
	<line fill="#010202" x1="28.25" y1="28.792" x2="121.5" y2="28.792"/>
	<polygon points="28.25,23.792 121.5,28.792 28.25,33.792 	"/>
</g>
<g>
	<line fill="#010202" x1="74.875" y1="121.458" x2="74.875" y2="36.393"/>
	<polygon points="69.875,121.458 74.875,36.393 79.875,121.458 	"/>
</g>
</svg>
