<?xml version="1.0" encoding="utf-8"?>
<!-- Generator: Adobe Illustrator 16.0.0, SVG Export Plug-In . SVG Version: 6.00 Build 0)  -->
<!DOCTYPE svg PUBLIC "-//W3C//DTD SVG 1.1//EN" "http://www.w3.org/Graphics/SVG/1.1/DTD/svg11.dtd">
<svg version="1.1" id="Calque_1" xmlns="http://www.w3.org/2000/svg" xmlns:xlink="http://www.w3.org/1999/xlink" x="0px" y="0px"
	 width="141.73px" height="141.73px" viewBox="0 0 141.73 141.73" enable-background="new 0 0 141.73 141.73" xml:space="preserve">
<g>
	<path d="M111.458,89.559c2.154,2.014,4.325,4.011,6.457,6.047l6.421,6.084c2.134,2.033,4.294,4.041,6.404,6.1l6.359,6.145
		l-1.852,0.767l-0.327-19.382l-0.183-19.381l-0.089-19.381l0.013-9.69c-0.002-3.23,0.021-6.46,0.06-9.691l2.751,1.14
		c-2.198,2.144-4.371,4.312-6.59,6.436l-6.629,6.396l-13.261,12.788l-1.753,1.69l0.039-2.4c0.096-5.8,0.242-11.601,0.296-17.401
		c0.08-5.8,0.118-11.601,0.129-17.401l0.579,0.579l-12.973,0.002l-12.974,0.052c-8.648,0.041-17.297,0.162-25.945,0.269
		l-25.946,0.351l-12.973,0.172L6.5,29.969l1.547-1.547l0.189,23.915L8.365,76.25l0.128,23.915l0.016,23.914L6.5,122.07l26.258,0.104
		c8.752,0.016,17.505,0.148,26.258,0.218l26.258,0.252l26.258,0.394l-1.041,1.047l0.11-8.598l0.159-8.598
		c0.115-5.732,0.214-11.465,0.377-17.197l0.012-0.422L111.458,89.559z M111.529,90.184c0.223,5.565,0.389,11.132,0.567,16.697
		l0.263,8.596l0.214,8.596l0.025,1.031l-1.066,0.017l-26.258,0.394l-26.258,0.252c-8.752,0.069-17.505,0.202-26.258,0.218
		L6.5,126.088l-2.01,0.008l0.001-2.017l0.016-23.914L4.635,76.25l0.128-23.914l0.189-23.915l0.012-1.562L6.5,26.875l12.973,0.122
		l12.973,0.172l25.946,0.351c8.648,0.107,17.297,0.228,25.945,0.269l12.974,0.052l12.973,0.002h0.578l0.001,0.579
		c0.011,5.8,0.049,11.601,0.129,17.401c0.054,5.8,0.2,11.601,0.296,17.401l-1.714-0.71l12.789-13.261l6.396-6.629
		c2.123-2.218,4.292-4.391,6.436-6.589l2.705-2.773l0.046,3.912c0.038,3.23,0.062,6.46,0.06,9.691l0.013,9.69l-0.089,19.381
		l-0.183,19.381l-0.327,19.382l-0.045,2.638l-1.807-1.871l-6.145-6.359c-2.058-2.11-4.065-4.271-6.1-6.405l-6.083-6.421
		C115.316,94.269,113.429,92.22,111.529,90.184z"/>
</g>
</svg>
