<?xml version="1.0" encoding="utf-8"?>
<!-- Generator: Adobe Illustrator 16.0.0, SVG Export Plug-In . SVG Version: 6.00 Build 0)  -->
<!DOCTYPE svg PUBLIC "-//W3C//DTD SVG 1.1//EN" "http://www.w3.org/Graphics/SVG/1.1/DTD/svg11.dtd">
<svg version="1.1" id="Calque_1" xmlns="http://www.w3.org/2000/svg" xmlns:xlink="http://www.w3.org/1999/xlink" x="0px" y="0px"
	 width="141.73px" height="141.73px" viewBox="0 0 141.73 141.73" enable-background="new 0 0 141.73 141.73" xml:space="preserve">
<g>
	<path fill="#010202" d="M46.253,53.625c0,0,0.045,0.798,0.131,2.295c0.004,0.752,0.164,1.664,0.346,2.735
		c0.104,0.532,0.146,1.119,0.32,1.718c0.167,0.6,0.346,1.236,0.534,1.91c0.85,2.648,2.169,5.827,4.5,8.94
		c2.311,3.094,5.472,6.237,9.607,8.549c4.09,2.353,9.04,3.961,14.356,4.312c0.662,0.057,1.336,0.021,2.007,0.036l1.012,0.006
		l0.507,0.004l0.462-0.041c1.388-0.147,2.886-0.186,4.169-0.504c0.665-0.136,1.329-0.238,1.998-0.396
		c0.667-0.195,1.339-0.392,2.013-0.588c0.682-0.169,1.335-0.434,1.988-0.702c0.65-0.273,1.326-0.489,1.965-0.797
		c2.576-1.199,5.013-2.745,7.251-4.57c2.181-1.893,4.193-4.009,5.851-6.412c1.593-2.443,2.872-5.082,3.799-7.853
		c0.34-1.42,0.788-2.815,0.946-4.273c0.108-0.723,0.258-1.441,0.256-2.176l0.053-1.097l0.027-0.548l0.015-0.274l0.008-0.137
		l0.003-0.068c0.003,0.039-0.001-0.184,0.008,0.069c-0.073-3.4-0.499-5.872-1.321-8.778c-0.924-2.772-2.214-5.404-3.803-7.847
		c-1.658-2.401-3.665-4.522-5.851-6.407c-2.237-1.825-4.673-3.37-7.247-4.569c-5.191-2.327-10.751-3.318-16.164-2.979
		c-0.65,0.067-1.296,0.134-1.938,0.2l-0.964,0.097l-0.956,0.192c-0.638,0.128-1.271,0.254-1.897,0.38
		c-0.628,0.13-1.225,0.354-1.833,0.524c-0.598,0.199-1.214,0.343-1.786,0.584c-0.574,0.24-1.144,0.477-1.707,0.712l-0.844,0.352
		c-0.272,0.132-0.534,0.282-0.801,0.421c-0.531,0.283-1.057,0.563-1.577,0.84c-4.135,2.311-7.299,5.45-9.608,8.545
		c-2.331,3.112-3.653,6.29-4.502,8.938c-0.188,0.673-0.367,1.31-0.535,1.909c-0.174,0.599-0.215,1.186-0.32,1.718
		c-0.182,1.071-0.342,1.982-0.346,2.735C46.299,52.827,46.253,53.625,46.253,53.625z M46.253,53.625c0,0,0.039-0.799,0.113-2.296
		c-0.001-0.753,0.151-1.666,0.325-2.74c0.1-0.534,0.137-1.123,0.307-1.724c0.157-0.604,0.324-1.246,0.5-1.924
		c0.794-2.676,2.052-5.887,4.24-9.158c2.19-3.254,5.297-6.544,9.359-9.259c0.518-0.324,1.041-0.651,1.569-0.981
		c0.266-0.163,0.528-0.337,0.802-0.494l0.849-0.426c0.57-0.285,1.146-0.574,1.727-0.864c0.582-0.293,1.21-0.488,1.822-0.741
		c0.62-0.231,1.231-0.517,1.878-0.708c0.648-0.188,1.304-0.376,1.963-0.566l0.997-0.286l1.04-0.195
		c0.7-0.129,1.405-0.259,2.115-0.39c5.51-0.799,11.794-0.324,17.724,1.854c2.956,1.133,5.817,2.672,8.504,4.576
		c2.613,1.997,5.018,4.352,7.072,7.049c2.004,2.733,3.62,5.79,4.765,9.053c1.065,3.19,1.612,7.081,1.664,10.083
		c0.006,0.303-0.001,0.131,0,0.22l-0.005,0.081l-0.009,0.163l-0.017,0.325l-0.036,0.649l-0.074,1.299
		c-0.015,0.869-0.186,1.722-0.321,2.579c-0.205,1.727-0.743,3.381-1.209,5.042c-1.141,3.264-2.767,6.314-4.768,9.048
		c-2.055,2.694-4.453,5.055-7.072,7.043c-2.685,1.904-5.545,3.442-8.5,4.575c-0.734,0.289-1.499,0.491-2.243,0.73
		c-0.745,0.235-1.487,0.463-2.253,0.592c-0.756,0.153-1.509,0.307-2.257,0.459c-0.763,0.116-1.543,0.176-2.303,0.262
		c-1.561,0.223-2.933,0.131-4.358,0.166h-0.593l-0.545-0.047l-1.082-0.095c-0.718-0.075-1.433-0.1-2.134-0.217
		c-5.623-0.865-10.649-2.943-14.708-5.641c-4.061-2.714-7.171-6-9.36-9.254c-2.188-3.271-3.448-6.48-4.242-9.157
		c-0.176-0.678-0.343-1.319-0.5-1.923c-0.169-0.601-0.207-1.19-0.307-1.724c-0.174-1.074-0.327-1.987-0.325-2.739
		C46.292,54.424,46.253,53.625,46.253,53.625z"/>
</g>
<g>
	<path fill="#010202" d="M61.788,87.512c-1.178,1.804-2.372,3.594-3.586,5.369c-1.204,1.783-2.426,3.552-3.66,5.312
		c-2.44,3.541-4.964,7.016-7.453,10.52l-3.8,5.202c-1.273,1.729-2.522,3.477-3.815,5.191l-3.862,5.154l-3.872,5.146l-1.464,1.945
		l-1.631-1.866l-4.987-5.705c-1.658-1.906-3.335-3.794-4.976-5.714l-4.918-5.765c-1.634-1.927-3.292-3.832-4.906-5.775l-1.542-1.856
		l2.037-1.132l8.341-4.632c2.808-1.497,5.598-3.023,8.419-4.497c2.828-1.463,5.647-2.94,8.508-4.347
		c2.847-1.431,5.725-2.809,8.634-4.133c-2.575,1.894-5.181,3.734-7.818,5.521c-2.624,1.812-5.288,3.553-7.944,5.308
		c-2.663,1.744-5.356,3.437-8.033,5.157l-8.111,5.022l0.494-2.988c1.688,1.88,3.332,3.797,5,5.694l4.987,5.704
		c1.661,1.903,3.285,3.838,4.929,5.756l4.918,5.764l-3.095,0.079l4.035-5.02l4.045-5.013c1.343-1.674,2.729-3.315,4.092-4.975
		l4.107-4.964c2.783-3.274,5.53-6.576,8.361-9.812c1.402-1.629,2.815-3.249,4.248-4.854C58.889,90.695,60.33,89.097,61.788,87.512z"
		/>
</g>
<g>
	<polygon fill="#010202" points="126,19.333 124,33.333 122,19.333 	"/>
</g>
<g>
	<polygon fill="#010202" points="117,24.333 131,26.333 117,28.333 	"/>
</g>
</svg>
